<svg width="40" height="40" viewBox="0 0 40 40" fill="none" xmlns="http://www.w3.org/2000/svg">
<rect x="10.3678" y="15.052" width="20" height="2.5" rx="1.25" fill="#D41E45"/>
<rect x="11.7678" y="14.686" width="12.9106" height="2.5" rx="1.25" transform="rotate(45 11.7678 14.686)" fill="#D41E45"/>
<rect x="10.1187" y="16.0511" width="12.8003" height="2.5" rx="1.25" transform="rotate(-45 10.1187 16.0511)" fill="#D41E45"/>
<path d="M6.38341 0.0403712C11.2047 0.0403712 15.9986 0.0403712 20.8199 0.0403712C23.9702 0.0403712 27.0931 0.0403712 30.2434 0.0403712C31.9692 0.0403712 33.9964 -0.164008 35.64 0.34694C37.9685 1.08781 39.6395 3.02942 39.9408 5.30313C40.023 5.91627 39.9956 6.50386 39.9956 7.117C39.9956 9.82502 39.9956 12.533 39.9956 15.2411C39.9956 18.179 39.9956 21.0914 39.9956 24.0294C39.9956 26.533 39.9134 28.9345 37.5576 30.6717C35.0647 32.5111 31.3392 31.9746 28.3532 31.9746C25.5317 31.9746 22.6827 31.9746 19.8612 31.9746C20.2447 31.8213 20.6282 31.668 21.0117 31.5148C18.1354 34.1972 15.259 36.8797 12.3827 39.5622C11.3691 40.5074 9.58849 39.8177 9.58849 38.4892C9.58849 35.8067 9.58849 33.1242 9.58849 30.4418C10.1364 30.9527 10.6842 31.4637 11.2321 31.9746C8.2188 31.9746 4.73978 32.4856 2.27434 30.544C0.000650567 28.7812 0.000649784 26.3542 0.000649784 23.8761C0.000649784 18.2812 0.000649784 12.7119 0.000649784 7.117C0.000649784 6.1462 -0.026744 5.20095 0.274588 4.25569C1.1238 1.7265 3.58924 0.142561 6.38341 0.0403712C8.49273 -0.036271 8.49273 3.02942 6.38341 3.10606C4.63021 3.15715 3.37009 4.38343 3.28791 6.01846C3.26051 6.47832 3.28791 6.93817 3.28791 7.39802C3.28791 9.77393 3.28791 12.1243 3.28791 14.5002C3.28791 17.2082 3.28791 19.9162 3.28791 22.6243C3.28791 23.9527 2.95918 25.8177 3.50706 27.0951C4.6302 29.7264 8.84885 28.9345 11.2321 28.9345C12.1087 28.9345 12.8757 29.6243 12.8757 30.4673C12.8757 33.1498 12.8757 35.8323 12.8757 38.5148C11.9444 38.1571 11.013 37.7994 10.0816 37.4418C12.1635 35.5002 14.2728 33.533 16.3548 31.5914C17.1218 30.8761 17.8614 30.0586 18.6832 29.4199C19.5324 28.7812 20.6008 28.96 21.6144 28.96C25.0934 28.96 28.5724 28.96 32.0514 28.96C33.2293 28.96 34.4621 29.0878 35.4756 28.398C36.5166 27.6571 36.7084 26.5841 36.7084 25.46C36.7084 19.4564 36.7084 13.4528 36.7084 7.44912C36.7084 6.70824 36.8179 5.83963 36.544 5.1243C36.0509 3.79584 34.7634 3.1827 33.3389 3.15715C30.8735 3.13161 28.408 3.15715 25.9426 3.15715C19.4229 3.15715 12.9031 3.15715 6.38341 3.15715C4.27409 3.10606 4.27409 0.0403712 6.38341 0.0403712Z" fill="#334747"/>
</svg>
