<svg width="84" height="80" viewBox="0 0 84 80" fill="none" xmlns="http://www.w3.org/2000/svg">
<path d="M8.53558 27.7858C14.9824 27.7858 21.3926 27.7858 27.8394 27.7858C32.0518 27.7858 36.2275 27.7858 40.44 27.7858C42.7476 27.7858 45.4582 27.5206 47.656 28.1836C50.7695 29.1449 53.0039 31.6642 53.4068 34.6144C53.5167 35.41 53.4801 36.1724 53.4801 36.968C53.4801 40.4817 53.4801 43.9954 53.4801 47.5092C53.4801 51.3213 53.4801 55.1002 53.4801 58.9123C53.4801 62.1608 53.3702 65.2768 50.2201 67.5309C46.8868 69.9176 41.9051 69.2214 37.9125 69.2214C34.1397 69.2214 30.3302 69.2214 26.5573 69.2214C27.0701 69.0225 27.583 68.8237 28.0958 68.6248C24.2497 72.1054 20.4036 75.5859 16.5575 79.0665C15.2022 80.293 12.8212 79.398 12.8212 77.6743C12.8212 74.1937 12.8212 70.7131 12.8212 67.2325C13.5538 67.8955 14.2864 68.5585 15.019 69.2214C10.9898 69.2214 6.3378 69.8844 3.04113 67.3651C0.000878275 65.0779 0.000877227 61.9288 0.000877227 58.7134C0.000877227 51.4538 0.000877227 44.2275 0.000877227 36.968C0.000877227 35.7083 -0.0357524 34.4818 0.367173 33.2553C1.50269 29.9736 4.79936 27.9184 8.53558 27.7858C11.3561 27.6864 11.3561 31.6642 8.53558 31.7636C6.19128 31.8299 4.50632 33.4211 4.39643 35.5426C4.3598 36.1392 4.39643 36.7359 4.39643 37.3326C4.39643 40.4154 4.39643 43.4651 4.39643 46.5479C4.39643 50.0616 4.39643 53.5754 4.39643 57.0891C4.39643 58.8128 3.95687 61.2327 4.68947 62.8901C6.19128 66.3044 11.8322 65.2768 15.019 65.2768C16.1912 65.2768 17.2168 66.1718 17.2168 67.2657C17.2168 70.7463 17.2168 74.2269 17.2168 77.7075C15.9714 77.2434 14.726 76.7793 13.4806 76.3152C16.2644 73.7959 19.0849 71.2435 21.8687 68.7242C22.8944 67.7961 23.8834 66.7353 24.9823 65.9066C26.1178 65.0779 27.5463 65.3099 28.9016 65.3099C33.5536 65.3099 38.2055 65.3099 42.8575 65.3099C44.4326 65.3099 46.0809 65.4757 47.4362 64.5807C48.8281 63.6193 49.0845 62.2271 49.0845 60.7686C49.0845 52.9787 49.0845 45.1888 49.0845 37.3989C49.0845 36.4376 49.2311 35.3105 48.8648 34.3824C48.2054 32.6587 46.4838 31.8631 44.5791 31.8299C41.2824 31.7968 37.9858 31.8299 34.6891 31.8299C25.9713 31.8299 17.2534 31.8299 8.53558 31.8299C5.7151 31.7636 5.7151 27.7858 8.53558 27.7858Z" fill="#334747"/>
<path d="M74.7678 0.0626082C67.7948 0.0626082 60.8615 0.0626082 53.8885 0.0626082C49.3323 0.0626082 44.8157 0.0626082 40.2595 0.0626082C37.7635 0.0626082 34.8316 -0.254346 32.4545 0.538039C29.0868 1.687 26.6701 4.69806 26.2343 8.22417C26.1154 9.17503 26.155 10.0863 26.155 11.0371C26.155 15.2368 26.155 19.4364 26.155 23.636C26.155 28.1923 26.155 32.7088 26.155 37.2651C26.155 41.1477 26.2739 44.8719 29.6811 47.5661C33.2865 50.4186 38.6747 49.5866 42.9932 49.5866C47.074 49.5866 51.1944 49.5866 55.2751 49.5866C54.7205 49.3489 54.1658 49.1112 53.6111 48.8735C57.7712 53.0335 61.9312 57.1935 66.0912 61.3535C67.5571 62.8194 70.1324 61.7497 70.1324 59.6895C70.1324 55.5295 70.1324 51.3695 70.1324 47.2095C69.34 48.0019 68.5476 48.7942 67.7552 49.5866C72.1133 49.5866 77.145 50.379 80.7107 47.368C83.9991 44.6342 83.9991 40.8704 83.9991 37.0273C83.9991 28.3507 83.9991 19.7137 83.9991 11.0371C83.9991 9.5316 84.0387 8.06569 83.6029 6.59978C82.3747 2.67748 78.809 0.221085 74.7678 0.0626082C71.7171 -0.0562495 71.7171 4.69806 74.7678 4.81691C77.3034 4.89615 79.1259 6.79788 79.2448 9.33351C79.2844 10.0467 79.2448 10.7598 79.2448 11.4729C79.2448 15.1575 79.2448 18.8025 79.2448 22.4871C79.2448 26.6867 79.2448 30.8864 79.2448 35.086C79.2448 37.1462 79.7202 40.0384 78.9278 42.0194C77.3034 46.1001 71.2021 44.8719 67.7552 44.8719C66.4874 44.8719 65.378 45.9417 65.378 47.2491C65.378 51.4091 65.378 55.5691 65.378 59.7292C66.7251 59.1745 68.0722 58.6198 69.4192 58.0651C66.4081 55.0541 63.3575 52.0034 60.3464 48.9923C59.2371 47.883 58.1674 46.6152 56.9788 45.6247C55.7506 44.6342 54.2054 44.9116 52.7395 44.9116C47.7079 44.9116 42.6762 44.9116 37.6446 44.9116C35.941 44.9116 34.1581 45.1097 32.6922 44.0399C31.1867 42.891 30.9093 41.227 30.9093 39.4837C30.9093 30.1732 30.9093 20.8627 30.9093 11.5522C30.9093 10.4032 30.7509 9.05617 31.147 7.94683C31.8602 5.88663 33.7223 4.93577 35.7825 4.89615C39.3482 4.85653 42.9139 4.89615 46.4797 4.89615C55.9091 4.89615 65.3384 4.89615 74.7678 4.89615C77.8185 4.81691 77.8185 0.0626082 74.7678 0.0626082Z" fill="#334747"/>
<path d="M74.7615 2.45639H35.38C31.6161 2.45639 28.5258 5.54669 28.5258 9.31051V40.372C28.5258 44.1358 31.6161 47.2261 35.38 47.2261H55.2688L67.7489 59.7062V47.2261H74.7615C78.5253 47.2261 81.6156 44.1358 81.6156 40.372V9.31051C81.6156 5.54669 78.5253 2.45639 74.7615 2.45639Z" fill="white"/>
<path d="M74.7614 0.0794462C67.7884 0.0794462 60.855 0.0794462 53.8821 0.0794462C49.3259 0.0794462 44.8093 0.0794462 40.2531 0.0794462C37.757 0.0794462 34.8252 -0.237507 32.4481 0.554877C29.0804 1.70383 26.6637 4.71489 26.2279 8.241C26.109 9.19186 26.1486 10.1031 26.1486 11.054C26.1486 15.2536 26.1486 19.4532 26.1486 23.6529C26.1486 28.2091 26.1486 32.7257 26.1486 37.2819C26.1486 41.1646 26.2675 44.8888 29.6747 47.5829C33.2801 50.4355 38.6683 49.6035 42.9868 49.6035C47.0676 49.6035 51.188 49.6035 55.2687 49.6035C54.7141 49.3657 54.1594 49.128 53.6047 48.8903C57.7647 53.0503 61.9248 57.2103 66.0848 61.3704C67.5507 62.8363 70.1259 61.7666 70.1259 59.7064C70.1259 55.5463 70.1259 51.3863 70.1259 47.2263C69.3336 48.0187 68.5412 48.8111 67.7488 49.6035C72.1069 49.6035 77.1385 50.3958 80.7043 47.3848C83.9927 44.6511 83.9927 40.8872 83.9927 37.0442C83.9927 28.3676 83.9927 19.7306 83.9927 11.054C83.9927 9.54844 84.0323 8.08253 83.5965 6.61662C82.3683 2.69431 78.8025 0.237923 74.7614 0.0794462C71.7107 -0.0394114 71.7107 4.71489 74.7614 4.83375C77.297 4.91299 79.1195 6.81471 79.2384 9.35034C79.278 10.0635 79.2384 10.7766 79.2384 11.4898C79.2384 15.1744 79.2384 18.8193 79.2384 22.5039C79.2384 26.7036 79.2384 30.9032 79.2384 35.1028C79.2384 37.163 79.7138 40.0552 78.9214 42.0362C77.297 46.117 71.1957 44.8888 67.7488 44.8888C66.481 44.8888 65.3716 45.9585 65.3716 47.2659C65.3716 51.4259 65.3716 55.586 65.3716 59.746C66.7187 59.1913 68.0657 58.6366 69.4128 58.082C66.4017 55.0709 63.3511 52.0202 60.34 49.0092C59.2307 47.8998 58.1609 46.632 56.9724 45.6415C55.7442 44.6511 54.199 44.9284 52.7331 44.9284C47.7015 44.9284 42.6698 44.9284 37.6382 44.9284C35.9346 44.9284 34.1517 45.1265 32.6858 44.0568C31.1803 42.9078 30.9029 41.2438 30.9029 39.5006C30.9029 30.19 30.9029 20.8795 30.9029 11.569C30.9029 10.4201 30.7444 9.07301 31.1406 7.96367C31.8538 5.90347 33.7159 4.95261 35.7761 4.91299C39.3418 4.87337 42.9075 4.91299 46.4733 4.91299C55.9026 4.91299 65.332 4.91299 74.7614 4.91299C77.8121 4.83375 77.8121 0.0794462 74.7614 0.0794462Z" fill="#334747"/>
<path d="M56.9115 16.0008C58.5656 16.0008 60.2198 16.0143 61.8739 16.0008C63.4742 15.9738 64.6577 16.6487 65.4915 17.9986C66.0428 18.8895 66.648 19.7534 67.1456 20.6848C67.549 21.4407 68.1139 21.9267 68.9073 22.2101C69.5125 22.4396 70.1042 22.7231 70.669 23.02C71.7449 23.587 72.2962 24.5184 72.3366 25.7332C72.3635 26.4487 72.35 27.1641 72.3366 27.8795C72.3097 29.8233 71.1128 31.0787 69.1763 31.1327C68.6518 31.1462 68.4232 31.2947 68.1945 31.7806C67.5087 33.2789 66.2849 34.0619 64.6308 34.0619C63.0035 34.0619 61.7932 33.2654 61.1342 31.7941C60.8922 31.2542 60.6098 31.1462 60.0987 31.1462C56.656 31.1597 53.2133 31.1597 49.7705 31.1462C49.2998 31.1462 49.0443 31.2542 48.8292 31.7401C48.1433 33.2654 46.9195 34.0754 45.2385 34.0619C43.5844 34.0484 42.3875 33.2385 41.7285 31.7266C41.5268 31.2812 41.2847 31.1597 40.8409 31.1192C39.2271 30.9842 38.0841 29.7828 38.0168 28.1765C37.9899 27.5016 38.0034 26.8401 38.0034 26.1652C38.0303 24.6129 38.8775 23.479 40.3702 23.0605C41.8495 22.6421 43.3423 22.2641 44.8216 21.8187C45.2116 21.6972 45.6285 21.4407 45.884 21.1167C46.7716 20.0234 47.6188 18.8895 48.4526 17.7691C49.3267 16.5947 50.4698 16.0008 51.9491 16.0143C53.6033 16.0143 55.2574 16.0008 56.9115 16.0008ZM68.598 29.6748C70.1849 29.8773 70.9111 29.2429 70.9111 27.65C70.9111 27.0426 70.9111 26.4352 70.9111 25.8412C70.9111 25.0313 70.5345 24.4914 69.8083 24.1539C69.0014 23.7895 68.1677 23.4385 67.3877 23.02C67.0515 22.8446 66.7152 22.5611 66.5135 22.2506C65.7335 21.0762 65.0073 19.8749 64.2677 18.6735C63.7297 17.7961 62.9498 17.3776 61.9277 17.3776C58.6194 17.3776 55.3112 17.3776 52.0029 17.3776C50.9943 17.3776 50.1874 17.7421 49.5823 18.5655C48.6409 19.8344 47.6861 21.1032 46.6909 22.3451C46.4623 22.6286 46.0857 22.885 45.7361 22.993C44.0954 23.479 42.4547 23.9109 40.8275 24.3564C40.0744 24.5589 39.5096 24.9773 39.4423 25.8007C39.3885 26.6242 39.3751 27.4611 39.4558 28.2845C39.5499 29.2834 40.3299 29.7963 41.352 29.6748C42.132 27.3531 43.3154 26.2327 45.1712 26.2867C45.9378 26.3002 46.7581 26.5837 47.4305 26.9481C48.4929 27.5151 48.9636 28.5679 49.1788 29.7153C53.0788 29.7153 56.9115 29.7153 60.7442 29.7153C61.2956 27.5556 62.627 26.3407 64.4963 26.2597C66.4597 26.1652 67.7508 27.2451 68.598 29.6748ZM42.8044 30.1203C42.7909 31.5241 43.9206 32.658 45.2923 32.6445C46.6371 32.631 47.7667 31.5106 47.7802 30.1743C47.7936 28.7974 46.664 27.6635 45.2788 27.6635C43.8937 27.6635 42.8178 28.7434 42.8044 30.1203ZM67.1321 30.1203C67.1187 28.7434 66.0294 27.6635 64.6711 27.6635C63.286 27.6635 62.1429 28.7974 62.1698 30.1743C62.1832 31.5106 63.3263 32.6445 64.6577 32.6445C66.0294 32.658 67.1456 31.5241 67.1321 30.1203Z" fill="#D41E45"/>
<path d="M68.598 29.6748C67.7508 27.2451 66.4463 26.1652 64.5097 26.2462C62.6404 26.3272 61.3091 27.5421 60.7577 29.7018C56.925 29.7018 53.0922 29.7018 49.1923 29.7018C48.9771 28.568 48.493 27.5016 47.444 26.9346C46.7581 26.5702 45.9378 26.3002 45.1847 26.2732C43.3154 26.2192 42.1454 27.3396 41.3654 29.6613C40.3434 29.7828 39.5634 29.2699 39.4692 28.271C39.3885 27.4476 39.402 26.6107 39.4558 25.7872C39.5096 24.9638 40.0744 24.5454 40.8409 24.3429C42.4816 23.8974 44.1223 23.4655 45.7495 22.9795C46.0992 22.8716 46.4757 22.6286 46.7043 22.3316C47.6995 21.0897 48.6543 19.8209 49.5957 18.552C50.2009 17.7286 51.0078 17.3641 52.0164 17.3641C55.3246 17.3776 58.6329 17.3641 61.9411 17.3641C62.9632 17.3641 63.7432 17.7826 64.2811 18.66C65.0208 19.8614 65.747 21.0627 66.527 22.2371C66.7421 22.5476 67.0649 22.8311 67.4011 23.0065C68.1945 23.425 69.0149 23.7625 69.8218 24.1404C70.548 24.4644 70.9245 25.0178 70.9245 25.8277C70.9245 26.4352 70.9245 27.0426 70.9245 27.6365C70.9111 29.2429 70.1849 29.8773 68.598 29.6748Z" fill="#D41E45"/>
</svg>
