<svg width="24" height="24" viewBox="0 0 24 24" fill="none" xmlns="http://www.w3.org/2000/svg">
<path d="M19.5 1.5H4.5C4.08516 1.5 3.75 1.83516 3.75 2.25V21.75C3.75 22.1648 4.08516 22.5 4.5 22.5H19.5C19.9148 22.5 20.25 22.1648 20.25 21.75V2.25C20.25 1.83516 19.9148 1.5 19.5 1.5ZM13.4062 3.1875H15.6562V8.10703L14.5664 7.3125L13.4062 8.14219V3.1875ZM18.5625 20.8125H5.4375V3.1875H12V10.1461C12 10.2234 12.0234 10.3008 12.0703 10.3641C12.0988 10.4043 12.1349 10.4385 12.1767 10.4646C12.2184 10.4908 12.2649 10.5084 12.3135 10.5165C12.3622 10.5245 12.4119 10.5229 12.4598 10.5116C12.5078 10.5003 12.553 10.4797 12.593 10.4508L14.557 9.04688L16.4648 10.4391C16.5281 10.4859 16.6055 10.5117 16.6852 10.5117C16.8914 10.5117 17.0602 10.343 17.0602 10.1367V3.1875H18.5602V20.8125H18.5625Z" fill="#555555"/>
</svg>
