<svg width="42" height="40" viewBox="0 0 42 40" fill="none" xmlns="http://www.w3.org/2000/svg">
<path d="M4.26773 13.8929C7.49114 13.8929 10.6962 13.8929 13.9196 13.8929C16.0258 13.8929 18.1137 13.8929 20.2199 13.8929C21.3738 13.8929 22.729 13.7603 23.8279 14.0918C25.3847 14.5724 26.5019 15.8321 26.7034 17.3072C26.7583 17.705 26.74 18.0862 26.74 18.484C26.74 20.2408 26.74 21.9977 26.74 23.7546C26.74 25.6606 26.74 27.5501 26.74 29.4561C26.74 31.0804 26.685 32.6384 25.11 33.7654C23.4433 34.9588 20.9525 34.6107 18.9562 34.6107C17.0698 34.6107 15.165 34.6107 13.2786 34.6107C13.535 34.5113 13.7914 34.4118 14.0478 34.3124C12.1248 36.0527 10.2017 37.793 8.27867 39.5332C7.60103 40.1465 6.41056 39.699 6.41056 38.8371C6.41056 37.0968 6.41056 35.3565 6.41056 33.6162C6.77686 33.9477 7.14316 34.2792 7.50945 34.6107C5.49482 34.6107 3.16884 34.9422 1.52051 33.6825C0.000383556 32.5389 0.000383032 30.9644 0.000383032 29.3567C0.000383032 25.7269 0.000383032 22.1137 0.000383032 18.484C0.000383032 17.8541 -0.0179318 17.2409 0.183531 16.6276C0.75129 14.9868 2.39962 13.9592 4.26773 13.8929C5.67797 13.8432 5.67797 15.8321 4.26773 15.8818C3.09559 15.9149 2.2531 16.7105 2.19816 17.7713C2.17984 18.0696 2.19816 18.3679 2.19816 18.6663C2.19816 20.2077 2.19816 21.7325 2.19816 23.2739C2.19816 25.0308 2.19816 26.7877 2.19816 28.5445C2.19816 29.4064 1.97838 30.6163 2.34468 31.445C3.09558 33.1522 5.91606 32.6384 7.50945 32.6384C8.09553 32.6384 8.60834 33.0859 8.60834 33.6328C8.60834 35.3731 8.60834 37.1134 8.60834 38.8537C7.98564 38.6217 7.36293 38.3896 6.74023 38.1576C8.13216 36.8979 9.54239 35.6217 10.9343 34.3621C11.4471 33.898 11.9416 33.3676 12.4911 32.9533C13.0588 32.5389 13.7731 32.6549 14.4508 32.6549C16.7767 32.6549 19.1027 32.6549 21.4287 32.6549C22.2162 32.6549 23.0404 32.7378 23.718 32.2903C24.414 31.8096 24.5422 31.1135 24.5422 30.3843C24.5422 26.4893 24.5422 22.5944 24.5422 18.6994C24.5422 18.2188 24.6155 17.6552 24.4323 17.1912C24.1027 16.3293 23.2419 15.9315 22.2895 15.9149C20.6412 15.8984 18.9928 15.9149 17.3445 15.9149C12.9856 15.9149 8.62665 15.9149 4.26773 15.9149C2.85749 15.8818 2.85749 13.8929 4.26773 13.8929Z" fill="#334747"/>
<path d="M37.3838 0.0313041C33.8973 0.0313041 30.4306 0.0313041 26.9441 0.0313041C24.666 0.0313041 22.4077 0.0313041 20.1296 0.0313041C18.8816 0.0313041 17.4157 -0.127173 16.2271 0.269019C14.5433 0.843498 13.3349 2.34903 13.117 4.11208C13.0576 4.58751 13.0774 5.04314 13.0774 5.51857C13.0774 7.61839 13.0774 9.7182 13.0774 11.818C13.0774 14.0961 13.0774 16.3544 13.0774 18.6325C13.0774 20.5739 13.1368 22.436 14.8404 23.783C16.6431 25.2093 19.3372 24.7933 21.4965 24.7933C23.5369 24.7933 25.5971 24.7933 27.6375 24.7933C27.3601 24.6745 27.0828 24.5556 26.8054 24.4367C28.8855 26.5168 30.9655 28.5968 33.0455 30.6768C33.7784 31.4097 35.0661 30.8749 35.0661 29.8448C35.0661 27.7648 35.0661 25.6847 35.0661 23.6047C34.6699 24.0009 34.2737 24.3971 33.8775 24.7933C36.0565 24.7933 38.5724 25.1895 40.3552 23.684C41.9994 22.3171 41.9994 20.4352 41.9994 18.5137C41.9994 14.1754 41.9994 9.85687 41.9994 5.51857C41.9994 4.7658 42.0192 4.03285 41.8013 3.29989C41.1872 1.33874 39.4044 0.110543 37.3838 0.0313041C35.8584 -0.0281248 35.8584 2.34903 37.3838 2.40846C38.6516 2.44808 39.5628 3.39894 39.6223 4.66675C39.6421 5.02333 39.6223 5.3799 39.6223 5.73647C39.6223 7.57877 39.6223 9.40125 39.6223 11.2435C39.6223 13.3434 39.6223 15.4432 39.6223 17.543C39.6223 18.5731 39.86 20.0192 39.4638 21.0097C38.6516 23.0501 35.6009 22.436 33.8775 22.436C33.2436 22.436 32.6889 22.9708 32.6889 23.6246C32.6889 25.7046 32.6889 27.7846 32.6889 29.8646C33.3624 29.5872 34.036 29.3099 34.7095 29.0326C33.204 27.527 31.6786 26.0017 30.1731 24.4962C29.6184 23.9415 29.0836 23.3076 28.4893 22.8124C27.8752 22.3171 27.1026 22.4558 26.3696 22.4558C23.8538 22.4558 21.338 22.4558 18.8222 22.4558C17.9704 22.4558 17.0789 22.5548 16.346 22.02C15.5932 21.4455 15.4545 20.6135 15.4545 19.7419C15.4545 15.0866 15.4545 10.4314 15.4545 5.77609C15.4545 5.20161 15.3753 4.52809 15.5734 3.97342C15.93 2.94332 16.861 2.46789 17.8911 2.44808C19.674 2.42827 21.4569 2.44808 23.2397 2.44808C27.9544 2.44808 32.6691 2.44808 37.3838 2.44808C38.9091 2.40846 38.9091 0.0313041 37.3838 0.0313041Z" fill="#334747"/>
<g clip-path="url(#clip0_396_268)">
<path d="M37.3808 1.22815H17.69C15.8081 1.22815 14.2629 2.7733 14.2629 4.65521V20.1859C14.2629 22.0679 15.8081 23.613 17.69 23.613H27.6344L33.8745 29.853V23.613H37.3808C39.2627 23.613 40.8078 22.0679 40.8078 20.1859V4.65521C40.8078 2.7733 39.2627 1.22815 37.3808 1.22815Z" fill="white"/>
<path d="M37.3806 0.0397269C33.8941 0.0397269 30.4274 0.0397269 26.9409 0.0397269C24.6628 0.0397269 22.4045 0.0397269 20.1264 0.0397269C18.8784 0.0397269 17.4125 -0.11875 16.2239 0.277442C14.5401 0.851921 13.3317 2.35745 13.1138 4.12051C13.0544 4.59594 13.0742 5.05156 13.0742 5.52699C13.0742 7.62681 13.0742 9.72663 13.0742 11.8264C13.0742 14.1045 13.0742 16.3628 13.0742 18.6409C13.0742 20.5823 13.1336 22.4444 14.8373 23.7914C16.6399 25.2177 19.3341 24.8017 21.4933 24.8017C23.5337 24.8017 25.5939 24.8017 27.6343 24.8017C27.3569 24.6829 27.0796 24.564 26.8023 24.4452C28.8823 26.5252 30.9623 28.6052 33.0423 30.6852C33.7753 31.4181 35.0629 30.8833 35.0629 29.8532C35.0629 27.7732 35.0629 25.6932 35.0629 23.6132C34.6667 24.0094 34.2705 24.4055 33.8743 24.8017C36.0534 24.8017 38.5692 25.1979 40.352 23.6924C41.9962 22.3255 41.9962 20.4436 41.9962 18.5221C41.9962 14.1838 41.9962 9.86529 41.9962 5.52699C41.9962 4.77422 42.0161 4.04127 41.7981 3.30831C41.1841 1.34716 39.4012 0.118965 37.3806 0.0397269C35.8553 -0.0197019 35.8553 2.35745 37.3806 2.41688C38.6484 2.4565 39.5597 3.40736 39.6191 4.67518C39.6389 5.03175 39.6191 5.38832 39.6191 5.74489C39.6191 7.58719 39.6191 9.40967 39.6191 11.252C39.6191 13.3518 39.6191 15.4516 39.6191 17.5514C39.6191 18.5815 39.8568 20.0276 39.4606 21.0181C38.6484 23.0585 35.5977 22.4444 33.8743 22.4444C33.2404 22.4444 32.6857 22.9793 32.6857 23.633C32.6857 25.713 32.6857 27.793 32.6857 29.873C33.3593 29.5957 34.0328 29.3183 34.7063 29.041C33.2008 27.5355 31.6754 26.0101 30.1699 24.5046C29.6152 23.9499 29.0804 23.316 28.4861 22.8208C27.872 22.3255 27.0994 22.4642 26.3665 22.4642C23.8506 22.4642 21.3348 22.4642 18.819 22.4642C17.9672 22.4642 17.0758 22.5633 16.3428 22.0284C15.59 21.4539 15.4514 20.6219 15.4514 19.7503C15.4514 15.095 15.4514 10.4398 15.4514 5.78451C15.4514 5.21003 15.3721 4.53651 15.5702 3.98184C15.9268 2.95174 16.8578 2.47631 17.8879 2.4565C19.6708 2.43669 21.4537 2.4565 23.2365 2.4565C27.9512 2.4565 32.6659 2.4565 37.3806 2.4565C38.9059 2.41688 38.9059 0.0397269 37.3806 0.0397269Z" fill="#334747"/>
</g>
<defs>
<clipPath id="clip0_396_268">
<rect width="28.922" height="31.0219" fill="white" transform="translate(13.0742)"/>
</clipPath>
</defs>
</svg>
