<svg width="19" height="17" viewBox="0 0 19 17" fill="none" xmlns="http://www.w3.org/2000/svg">
<path d="M6.79296 12.4375H12.207C12.2973 12.4375 12.3711 12.3637 12.3711 12.2734V10.5508C12.3711 10.4605 12.2973 10.3867 12.207 10.3867H11.3867C11.2965 10.3867 11.2227 10.4605 11.2227 10.5508V11.2891H7.77734V10.5508C7.77734 10.4605 7.70351 10.3867 7.61328 10.3867H6.79296C6.70273 10.3867 6.6289 10.4605 6.6289 10.5508V12.2734C6.6289 12.3637 6.70273 12.4375 6.79296 12.4375ZM13.7656 9.91503C13.7656 10.1326 13.852 10.3412 14.0059 10.4951C14.1597 10.6489 14.3684 10.7353 14.5859 10.7353C14.8035 10.7353 15.0121 10.6489 15.166 10.4951C15.3198 10.3412 15.4062 10.1326 15.4062 9.91503C15.4062 9.69747 15.3198 9.48882 15.166 9.33498C15.0121 9.18115 14.8035 9.09472 14.5859 9.09472C14.3684 9.09472 14.1597 9.18115 14.0059 9.33498C13.852 9.48882 13.7656 9.69747 13.7656 9.91503ZM18.667 6.47792L18.181 5.6289C18.1591 5.59147 18.1233 5.56421 18.0814 5.55307C18.0396 5.54192 17.995 5.54781 17.9574 5.56943L16.9177 6.17646L15.3119 1.74267C15.2271 1.47811 15.0605 1.24733 14.836 1.08367C14.6115 0.920002 14.3408 0.831914 14.063 0.832123H5.17695C4.46533 0.832123 3.83369 1.2915 3.61425 1.97031L2.08437 6.17851L1.04257 5.57148C1.00501 5.54986 0.960424 5.54398 0.918542 5.55512C0.87666 5.56626 0.840889 5.59352 0.819039 5.63095L0.333004 6.47792C0.287887 6.55585 0.314547 6.65429 0.392476 6.69941L1.63115 7.42128L1.33379 8.2416C1.30918 8.30722 1.29687 8.37695 1.29687 8.44667V15.5875C1.29687 15.9095 1.53886 16.1699 1.83623 16.1699H3.22255C3.4748 16.1699 3.69423 15.9792 3.74755 15.7126L3.90546 14.9394H15.0945L15.2524 15.7126C15.3078 15.9792 15.5252 16.1699 15.7774 16.1699H17.1638C17.4611 16.1699 17.7031 15.9095 17.7031 15.5875V8.44667C17.7031 8.37695 17.6908 8.30722 17.6662 8.2416L17.3688 7.42128L18.6055 6.69941C18.6427 6.67791 18.67 6.64266 18.6815 6.60124C18.693 6.55982 18.6878 6.51554 18.667 6.47792ZM16.2266 8.60253V13.4629H2.77343V8.60253L3.09336 7.7207H15.9066L16.2266 8.60253ZM5.00263 2.47275L5.01289 2.44609L5.02109 2.41943C5.04365 2.35175 5.10517 2.30663 5.17695 2.30663H13.9461L15.4924 6.57226H3.51171L5.00263 2.47275ZM3.59375 9.91503C3.59375 10.1326 3.68017 10.3412 3.83401 10.4951C3.98785 10.6489 4.1965 10.7353 4.41406 10.7353C4.63162 10.7353 4.84027 10.6489 4.99411 10.4951C5.14794 10.3412 5.23437 10.1326 5.23437 9.91503C5.23437 9.69747 5.14794 9.48882 4.99411 9.33498C4.84027 9.18115 4.63162 9.09472 4.41406 9.09472C4.1965 9.09472 3.98785 9.18115 3.83401 9.33498C3.68017 9.48882 3.59375 9.69747 3.59375 9.91503Z" fill="white"/>
</svg>
