<svg width="18" height="10" viewBox="0 0 18 10" fill="none" xmlns="http://www.w3.org/2000/svg">
<path d="M9.45576 0.000389478C10.2828 0.000389478 11.1099 0.00713876 11.937 0.000389478C12.7371 -0.0131091 13.3288 0.324355 13.7457 0.999284C14.0214 1.44474 14.324 1.87669 14.5728 2.34239C14.7745 2.72035 15.0569 2.96333 15.4537 3.10506C15.7562 3.2198 16.0521 3.36153 16.3345 3.51002C16.8724 3.79349 17.1481 4.25919 17.1683 4.86662C17.1817 5.22434 17.175 5.58205 17.1683 5.93976C17.1548 6.91166 16.5564 7.53934 15.5881 7.56634C15.3259 7.57309 15.2116 7.64733 15.0973 7.8903C14.7543 8.63948 14.1425 9.03093 13.3154 9.03093C12.5018 9.03093 11.8966 8.63273 11.5671 7.89705C11.4461 7.62708 11.3049 7.57309 11.0494 7.57309C9.328 7.57984 7.60663 7.57984 5.88526 7.57309C5.64992 7.57309 5.52216 7.62708 5.41458 7.87006C5.07165 8.63273 4.45976 9.03768 3.61924 9.03093C2.79218 9.02418 2.19374 8.61923 1.86426 7.86331C1.76339 7.64058 1.64236 7.57984 1.42047 7.55959C0.613574 7.4921 0.0420256 6.89141 0.00840512 6.08825C-0.00504307 5.75078 0.00168102 5.42007 0.00168102 5.0826C0.0151292 4.30643 0.438747 3.73949 1.18512 3.53027C1.92477 3.32104 2.67115 3.13206 3.4108 2.90933C3.6058 2.84859 3.81424 2.72035 3.942 2.55837C4.38579 2.01168 4.80941 1.44474 5.2263 0.884546C5.66337 0.297358 6.23492 0.000389478 6.97457 0.00713876C7.80163 0.00713876 8.6287 0.000389478 9.45576 0.000389478ZM15.299 6.83742C16.0924 6.93866 16.4555 6.62144 16.4555 5.82502C16.4555 5.52131 16.4555 5.21759 16.4555 4.92062C16.4555 4.51566 16.2673 4.24569 15.9042 4.07696C15.5007 3.89473 15.0838 3.71925 14.6938 3.51002C14.5257 3.42228 14.3576 3.28054 14.2568 3.12531C13.8668 2.53812 13.5037 1.93743 13.1338 1.33675C12.8649 0.898044 12.4749 0.688817 11.9638 0.688817C10.3097 0.688817 8.65559 0.688817 7.00146 0.688817C6.49716 0.688817 6.09371 0.871047 5.79113 1.28275C5.32044 1.91719 4.84303 2.55162 4.34545 3.17255C4.23114 3.31429 4.04286 3.44253 3.86804 3.49652C3.0477 3.73949 2.22736 3.95547 1.41374 4.1782C1.03719 4.27944 0.75478 4.48866 0.721159 4.90037C0.694263 5.31208 0.687539 5.73053 0.727883 6.14224C0.774952 6.64169 1.16495 6.89816 1.67598 6.83742C2.06598 5.67654 2.6577 5.11635 3.58562 5.14335C3.9689 5.15009 4.37907 5.29183 4.71527 5.47406C5.24648 5.75753 5.48182 6.28397 5.5894 6.85766C7.53939 6.85766 9.45576 6.85766 11.3721 6.85766C11.6478 5.77778 12.3135 5.17034 13.2481 5.12985C14.2299 5.0826 14.8754 5.62254 15.299 6.83742ZM2.40218 7.06014C2.39546 7.76207 2.96028 8.32901 3.64614 8.32226C4.31855 8.31551 4.88337 7.75532 4.8901 7.08714C4.89682 6.39871 4.332 5.83177 3.63942 5.83177C2.94683 5.83177 2.40891 6.37171 2.40218 7.06014ZM14.5661 7.06014C14.5593 6.37171 14.0147 5.83177 13.3356 5.83177C12.643 5.83177 12.0714 6.39871 12.0849 7.08714C12.0916 7.75532 12.6632 8.32226 13.3288 8.32226C14.0147 8.32901 14.5728 7.76207 14.5661 7.06014Z" fill="#D41E45"/>
<path d="M15.299 6.83748C14.8754 5.62261 14.2232 5.08266 13.2549 5.12316C12.3202 5.16366 11.6546 5.77109 11.3789 6.85098C9.46251 6.85098 7.54614 6.85098 5.59615 6.85098C5.48857 6.28404 5.2465 5.75084 4.72202 5.46737C4.37909 5.28514 3.96892 5.15016 3.59237 5.13666C2.65772 5.10966 2.07273 5.66985 1.68273 6.83073C1.1717 6.89147 0.781701 6.635 0.734632 6.13555C0.694288 5.72385 0.701012 5.30539 0.727908 4.89368C0.754804 4.48198 1.03722 4.27275 1.42049 4.17151C2.24083 3.94878 3.06117 3.73281 3.87478 3.48983C4.04961 3.43584 4.23789 3.31435 4.35219 3.16587C4.84978 2.54493 5.32719 1.9105 5.79788 1.27607C6.10046 0.86436 6.50391 0.682129 7.00821 0.682129C8.66234 0.688878 10.3165 0.682129 11.9706 0.682129C12.4816 0.682129 12.8716 0.891357 13.1406 1.33006C13.5104 1.93075 13.8735 2.53143 14.2635 3.11862C14.3711 3.27385 14.5325 3.41559 14.7006 3.50333C15.0973 3.71256 15.5075 3.88129 15.9109 4.07027C16.274 4.23225 16.4623 4.50897 16.4623 4.91393C16.4623 5.21765 16.4623 5.52137 16.4623 5.81834C16.4556 6.6215 16.0925 6.93872 15.299 6.83748Z" fill="#D41E45"/>
</svg>
