<svg width="50" height="50" viewBox="0 0 50 50" fill="none" xmlns="http://www.w3.org/2000/svg">
<g clip-path="url(#clip0_378_273)">
<path d="M29.0406 0H12.5C10.8424 0 9.25268 0.65848 8.08058 1.83058C6.90848 3.00269 6.25 4.5924 6.25 6.25V43.75C6.25 45.4076 6.90848 46.9973 8.08058 48.1694C9.25268 49.3415 10.8424 50 12.5 50H37.5C39.1576 50 40.7473 49.3415 41.9194 48.1694C43.0915 46.9973 43.75 45.4076 43.75 43.75V14.7094C43.7498 13.8806 43.4205 13.0859 42.8344 12.5L31.25 0.915625C30.6641 0.329533 29.8694 0.000176992 29.0406 0V0ZM29.6875 10.9375V4.6875L39.0625 14.0625H32.8125C31.9837 14.0625 31.1888 13.7333 30.6028 13.1472C30.0167 12.5612 29.6875 11.7663 29.6875 10.9375ZM33.9188 24.5438L24.5438 33.9188C24.3986 34.0643 24.2262 34.1797 24.0364 34.2585C23.8465 34.3372 23.643 34.3778 23.4375 34.3778C23.232 34.3778 23.0285 34.3372 22.8386 34.2585C22.6488 34.1797 22.4764 34.0643 22.3312 33.9188L17.6437 29.2313C17.4985 29.086 17.3832 28.9135 17.3046 28.7237C17.226 28.5339 17.1855 28.3304 17.1855 28.125C17.1855 27.9196 17.226 27.7161 17.3046 27.5263C17.3832 27.3365 17.4985 27.164 17.6437 27.0187C17.9371 26.7254 18.3351 26.5605 18.75 26.5605C18.9554 26.5605 19.1589 26.601 19.3487 26.6796C19.5385 26.7582 19.711 26.8735 19.8563 27.0187L23.4375 30.6031L31.7062 22.3312C31.9996 22.0379 32.3976 21.873 32.8125 21.873C33.2274 21.873 33.6254 22.0379 33.9188 22.3312C34.2121 22.6246 34.377 23.0226 34.377 23.4375C34.377 23.8524 34.2121 24.2504 33.9188 24.5438V24.5438Z" fill="#D41E45"/>
</g>
<defs>
<clipPath id="clip0_378_273">
<rect width="50" height="50" fill="white"/>
</clipPath>
</defs>
</svg>
