<svg width="50" height="50" viewBox="0 0 50 50" fill="none" xmlns="http://www.w3.org/2000/svg">
<g clip-path="url(#clip0_378_275)">
<path d="M29.0406 0H12.5C10.8424 0 9.25268 0.65848 8.08058 1.83058C6.90848 3.00269 6.25 4.5924 6.25 6.25V43.75C6.25 45.4076 6.90848 46.9973 8.08058 48.1694C9.25268 49.3415 10.8424 50 12.5 50H37.5C39.1576 50 40.7473 49.3415 41.9194 48.1694C43.0915 46.9973 43.75 45.4076 43.75 43.75V14.7094C43.7498 13.8806 43.4205 13.0859 42.8344 12.5L31.25 0.915625C30.6641 0.329533 29.8694 0.000176992 29.0406 0ZM29.6875 10.9375V4.6875L39.0625 14.0625H32.8125C31.9837 14.0625 31.1888 13.7333 30.6028 13.1472C30.0167 12.5612 29.6875 11.7663 29.6875 10.9375ZM18.3875 20.875L25 28.8094L31.6125 20.8719C31.8781 20.5536 32.2593 20.3539 32.6722 20.3167C33.0851 20.2795 33.4958 20.4078 33.8141 20.6734C34.1323 20.9391 34.332 21.3202 34.3692 21.7331C34.4065 22.146 34.2781 22.5567 34.0125 22.875L27.0344 31.25L34.0125 39.625C34.266 39.9445 34.3846 40.3506 34.3428 40.7563C34.301 41.1621 34.1021 41.5354 33.7888 41.7965C33.4754 42.0577 33.0724 42.1859 32.6657 42.1539C32.2591 42.1218 31.8811 41.932 31.6125 41.625L25 33.6906L18.3875 41.6281C18.1219 41.9464 17.7407 42.1461 17.3278 42.1833C16.9149 42.2205 16.5042 42.0922 16.1859 41.8266C15.8677 41.5609 15.668 41.1798 15.6308 40.7669C15.5935 40.354 15.7219 39.9433 15.9875 39.625L22.9656 31.25L15.9875 22.875C15.8503 22.7182 15.7459 22.5355 15.6803 22.3378C15.6148 22.14 15.5895 21.9311 15.6058 21.7234C15.6222 21.5157 15.6799 21.3134 15.7757 21.1283C15.8714 20.9433 16.0031 20.7792 16.1632 20.6458C16.3233 20.5125 16.5084 20.4124 16.7077 20.3517C16.9069 20.2909 17.1164 20.2706 17.3236 20.2919C17.5309 20.3133 17.7318 20.3759 17.9145 20.476C18.0972 20.5761 18.258 20.7118 18.3875 20.875Z" fill="#D41E45"/>
</g>
<defs>
<clipPath id="clip0_378_275">
<rect width="50" height="50" fill="white"/>
</clipPath>
</defs>
</svg>
