<svg width="369" height="262" viewBox="0 0 369 262" fill="none" xmlns="http://www.w3.org/2000/svg">
<g clip-path="url(#clip0_186_330)">
<path d="M279.81 86.3649L278.443 173.5L272.444 220.402L259.233 220.27L254.778 220.204L233.561 219.984L231.775 191.394L229.216 91.4931L279.81 86.3649Z" fill="#BCECF7"/>
<path d="M333.999 220.908H323.964L295.226 220.644L295.623 181.137L296.616 92.3735L330.536 100.473L332.808 181.137L333.999 220.908Z" fill="#BCECF7"/>
<path d="M226.636 150.214V219.786L208.639 219.544L172.645 219.082L170.065 138.527L226.636 150.214Z" fill="#BCECF7"/>
<path d="M188.657 219.302L174.013 219.126L159.743 218.95L153.259 218.862L153.612 173.984L154.516 62.8149L185.526 75.0081L187.577 173.984L188.657 219.302Z" fill="#BCECF7"/>
<path d="M219.336 92.3735L219.314 92.6376L218.409 219.676L216.888 219.654L208.639 219.544L203.368 219.456L194.722 219.346L195.318 163.838L196.024 99.7467L219.336 92.3735Z" fill="#BCECF7"/>
<path d="M317.877 120.325L314.37 119.819L314.172 112.952L317.877 112.71V120.325Z" fill="white"/>
<path d="M306.717 107.802L303.21 107.318L303.012 100.451L306.717 100.209V107.802Z" fill="white"/>
<path d="M267.989 151.293L264.482 150.698L264.284 142.577L267.989 142.291V151.293Z" fill="white"/>
<path d="M166.779 89.4242L163.272 88.83L163.096 80.7085L166.779 80.4004V89.4242Z" fill="white"/>
<path d="M214.506 110.267L210.999 109.673L210.8 101.551L214.506 101.243V110.267Z" fill="white"/>
<path d="M238.634 128.997L235.127 128.403L234.951 120.281L238.634 119.995V128.997Z" fill="white"/>
<path d="M184.511 262C286.414 262 369.022 250.835 369.022 237.063C369.022 223.291 286.414 212.127 184.511 212.127C82.6084 212.127 0 223.291 0 237.063C0 250.835 82.6084 262 184.511 262Z" fill="#DCF6F9"/>
<path d="M320.545 15.4286C320.545 15.4286 318.119 9.37602 312.01 10.1464C305.901 10.8947 306.629 16.9693 303.696 16.397C300.784 15.8248 296.704 16.397 295.822 20.1826C294.94 23.9683 291.014 21.8774 290.86 25.1128C290.705 28.3261 295.381 30.5931 300.762 27.7539C306.144 24.9147 308.768 29.9548 316.355 29.0524C323.942 28.128 324.868 27.0056 329.345 27.5778C333.822 28.15 333.734 24.1663 331.683 21.5032C329.676 18.8401 321.428 19.1042 320.545 15.4286Z" fill="#DCF6F9"/>
<path d="M190.047 9.354C190.047 9.354 185.812 -1.1885 175.138 0.132064C164.441 1.45263 165.72 12.0392 160.626 11.0487C155.531 10.0583 148.407 11.0487 146.885 17.6516C145.364 24.2544 138.483 20.6228 138.24 26.2352C137.975 31.8476 146.136 35.8093 155.553 30.8572C164.97 25.9051 169.558 34.7088 182.791 33.1242C196.024 31.5395 197.656 29.5366 205.485 30.5271C213.315 31.5175 213.138 24.5625 209.565 19.9185C205.992 15.2965 191.569 15.7367 190.047 9.354Z" fill="#DCF6F9"/>
<g opacity="0.6">
<path d="M236.869 43.0724C236.869 43.0724 233.715 37.0198 225.732 37.7682C217.748 38.5165 218.696 44.5911 214.903 44.0188C211.109 43.4466 205.772 44.0188 204.647 47.8044C203.5 51.5901 198.384 49.5212 198.185 52.7345C197.987 55.9479 204.074 58.2369 211.109 55.3977C218.145 52.5585 221.563 57.5986 231.444 56.6962C241.324 55.7718 242.537 54.6494 248.404 55.2216C254.249 55.7939 254.116 51.7881 251.448 49.147C248.779 46.4839 237.994 46.748 236.869 43.0724Z" fill="#DCF6F9"/>
</g>
<path d="M50.0866 235.082L40.3383 235.016C34.4938 235.743 29.4432 230.108 29.4432 222.911V49.8073C29.4432 42.6542 34.4717 37.0418 40.2722 37.7021H52.3141C57.4088 38.2964 130.477 52.8666 130.477 59.1393V212.963C130.499 219.192 55.1592 234.466 50.0866 235.082Z" fill="#24555E"/>
<path d="M133.63 225.046L52.4244 235.016C46.5799 235.743 41.5293 230.108 41.5293 222.911V49.8073C41.5293 42.6542 46.5578 37.0418 52.3582 37.7021L133.564 47.0341C138.659 47.6284 142.563 52.8666 142.563 59.1393V212.963C142.541 219.192 138.681 224.43 133.63 225.046Z" fill="#24555E"/>
<path d="M137.667 61.9125V201.078C137.667 206.734 134.27 211.466 129.793 212.017L89.0576 217.145L58.0705 221.04C52.9096 221.679 48.4325 216.595 48.4325 210.102V53.4829C48.4325 47.0121 52.8655 41.9279 58.0043 42.5222L113.362 49.037L129.727 50.9518C133.608 51.414 136.696 55.0015 137.468 59.6235C137.6 60.3718 137.667 61.1421 137.667 61.9125Z" fill="#DCF6F9"/>
<path d="M132.153 94.5084V198.217C132.153 202.421 129.241 205.964 125.426 206.382L90.7116 210.19L64.312 213.095C59.923 213.579 56.1075 209.794 56.1075 204.93V88.2137C56.1075 83.3936 59.8789 79.608 64.2678 80.0482L111.443 84.8903L125.382 86.3209C128.69 86.651 131.315 89.3362 131.976 92.7917C132.087 93.3639 132.153 93.9141 132.153 94.5084Z" fill="#8BC0CC"/>
<path d="M51.4099 235.171C49.3147 235.171 47.2636 234.378 45.5653 232.86C42.9629 230.549 41.397 226.829 41.397 222.911V49.8073C41.397 45.8896 42.9408 42.192 45.5212 39.881C47.4841 38.1203 49.9102 37.328 52.3362 37.5921L52.3141 37.7902C49.9543 37.526 47.5723 38.3184 45.6536 40.0131C43.1173 42.2801 41.5955 45.9336 41.5955 49.7853V222.911C41.5955 226.785 43.1173 230.439 45.6977 232.705C47.6385 234.422 50.0204 235.193 52.3803 234.906L52.4024 235.104C52.0715 235.171 51.7407 235.171 51.4099 235.171Z" fill="#1C3A3E"/>
<g opacity="0.3">
<path d="M113.362 49.037L48.4104 98.272V53.4829C48.4104 47.0121 52.8434 41.9279 57.9822 42.5222L113.362 49.037Z" fill="white"/>
</g>
<path d="M80.5003 211.312L76.5966 211.753C77.7214 196.676 81.7133 182.788 87.6019 171.871C92.3437 163.09 98.6073 155.761 106.216 150.082C119.185 140.398 131.623 138.703 132.131 138.659V142.379C132.02 142.401 120.375 143.765 108.135 152.965C100.967 158.358 95.0565 165.313 90.5793 173.632C84.9554 184.087 81.581 196.786 80.5003 211.312Z" fill="white"/>
<path d="M101.188 156.267C101.077 156.091 89.5207 138.791 84.448 134.433C76.376 127.523 56.306 129.107 56.1075 129.107V125.63C56.9897 125.564 77.5449 123.935 86.6976 131.792C92.1231 136.458 103.57 153.604 104.055 154.33L101.188 156.267Z" fill="white"/>
<path d="M112.294 122.892L109.168 124.376L118.86 144.708L121.987 143.223L112.294 122.892Z" fill="white"/>
<path d="M56.1075 173.962V170.507L88.9472 169.142L89.1016 172.576L56.1075 173.962Z" fill="white"/>
<path d="M114.994 207.527L111.509 207.901L111.62 147.837H115.06L114.994 207.527Z" fill="white"/>
<path d="M113.278 187.853L81.9851 189.065L82.1194 192.518L113.412 191.305L113.278 187.853Z" fill="white"/>
<path d="M69.3846 127.214H65.922V171.761H69.3846V127.214Z" fill="white"/>
<path d="M59.8128 117.926C57.5411 117.926 56.2399 117.926 56.1075 117.926V114.427C56.4163 114.449 87.0726 115.549 103.614 106.415C108.466 103.73 111.179 99.4605 111.686 93.6941C112.083 89.2922 111.002 85.6826 110.98 85.6606L114.288 84.6482C114.332 84.8243 115.567 88.918 115.126 94.0022C114.509 100.869 111.112 106.217 105.29 109.431C97.9677 113.481 87.4255 116.144 73.994 117.31C68.1274 117.816 63.0548 117.926 59.8128 117.926Z" fill="white"/>
<path d="M86.3228 114.537L82.8822 114.471L83.5659 82.0511L87.1829 82.4032L86.3228 114.537Z" fill="white"/>
<path d="M88.837 135.82L85.4626 132.056L132.153 113.899V119.203L88.837 135.82Z" fill="white"/>
<path d="M116.957 81.6329C111.112 81.985 108.267 86.3649 107.87 92.1974C107.473 97.9639 113.715 106.371 116.781 110.157C117.641 111.214 119.251 111.214 120.133 110.179C123.11 106.57 129.043 98.6902 129.043 93.0778C129.021 87.2453 124.191 81.2147 116.957 81.6329ZM117.685 98.9543C114.31 98.8222 111.796 96.4232 111.796 93.0558C111.796 89.6883 113.208 87.2673 118.06 86.453C122.206 85.7486 124.191 89.5123 124.456 92.8797C124.786 96.9294 122.316 99.1524 117.685 98.9543Z" fill="#1C3A3E"/>
<path d="M115.369 121.25L106.15 106.856L109.966 104.369L119.537 119.621L115.369 121.25Z" fill="white"/>
<path d="M95.1668 145.636C94.9021 145.636 94.6375 145.526 94.4831 145.284L93.7994 144.36C93.5127 143.986 93.6009 143.435 93.9758 143.149C94.3507 142.863 94.9021 142.951 95.1888 143.325L95.8725 144.25C96.1592 144.624 96.071 145.174 95.6961 145.46C95.5197 145.57 95.3432 145.636 95.1668 145.636Z" fill="#FF7B69"/>
<path d="M93.1377 142.907C92.873 142.907 92.6084 142.797 92.454 142.555L91.1086 140.75C90.8219 140.376 90.9101 139.826 91.2851 139.54C91.66 139.254 92.2114 139.342 92.4981 139.716L93.8434 141.52C94.1302 141.895 94.0419 142.445 93.667 142.731C93.5126 142.841 93.3141 142.907 93.1377 142.907ZM90.4691 139.298C90.2044 139.298 89.9397 139.187 89.7853 138.945L88.44 137.141C88.1533 136.766 88.2415 136.216 88.6164 135.93C88.9914 135.644 89.5427 135.732 89.8295 136.106L91.1748 137.911C91.4615 138.285 91.3733 138.835 90.9984 139.121C90.8219 139.254 90.6455 139.298 90.4691 139.298Z" fill="#FF7B69"/>
<path d="M87.8004 135.71C87.5358 135.71 87.2711 135.6 87.1167 135.358L86.433 134.433C86.2786 134.213 86.2125 133.949 86.3007 133.685C86.3668 133.421 86.5653 133.223 86.83 133.113L87.9107 132.695C88.3518 132.519 88.8591 132.739 89.0355 133.179C89.2119 133.619 88.9914 134.125 88.5503 134.301H88.5282V134.323C88.8149 134.698 88.7267 135.248 88.3518 135.534C88.1533 135.644 87.9769 135.71 87.8004 135.71Z" fill="#FF7B69"/>
<path d="M90.425 133.509C90.0721 133.509 89.7413 133.289 89.6089 132.959C89.4325 132.519 89.6531 132.012 90.0942 131.836L92.3438 130.978C92.7848 130.802 93.2921 131.022 93.4685 131.462C93.645 131.902 93.4244 132.409 92.9833 132.585L90.7337 133.443C90.6235 133.487 90.5353 133.509 90.425 133.509ZM94.9021 131.792C94.5492 131.792 94.2184 131.572 94.0861 131.242C93.9096 130.802 94.1302 130.296 94.5713 130.12L96.8209 129.261C97.262 129.085 97.7692 129.305 97.9457 129.745C98.1221 130.186 97.9016 130.692 97.4605 130.868L95.2109 131.726C95.1227 131.77 95.0124 131.792 94.9021 131.792ZM99.4013 130.076C99.0484 130.076 98.7176 129.856 98.5853 129.525C98.4088 129.085 98.6294 128.579 99.0705 128.403L101.32 127.545C101.761 127.368 102.268 127.589 102.445 128.029C102.621 128.469 102.401 128.975 101.96 129.151L99.7101 130.01C99.5998 130.054 99.5116 130.076 99.4013 130.076ZM103.901 128.337C103.548 128.337 103.217 128.117 103.084 127.787C102.908 127.346 103.129 126.84 103.57 126.664L105.819 125.806C106.26 125.63 106.768 125.85 106.944 126.29C107.121 126.73 106.9 127.236 106.459 127.412L104.209 128.271C104.099 128.315 103.989 128.337 103.901 128.337ZM108.378 126.62C108.025 126.62 107.694 126.4 107.562 126.07C107.385 125.63 107.606 125.123 108.047 124.947L110.296 124.089C110.738 123.913 111.245 124.133 111.421 124.573C111.598 125.013 111.377 125.52 110.936 125.696L108.686 126.554C108.576 126.598 108.488 126.62 108.378 126.62ZM112.877 124.903C112.524 124.903 112.193 124.683 112.061 124.353C111.884 123.913 112.105 123.407 112.546 123.231L114.796 122.372C115.237 122.196 115.744 122.416 115.92 122.857C116.097 123.297 115.876 123.803 115.435 123.979L113.186 124.837C113.075 124.881 112.965 124.903 112.877 124.903Z" fill="#FF7B69"/>
<path d="M117.354 123.165C117.001 123.165 116.67 122.945 116.538 122.614C116.361 122.174 116.582 121.668 117.023 121.492L117.111 121.448L117.067 121.36C116.803 120.964 116.935 120.435 117.332 120.171C117.729 119.907 118.258 120.039 118.523 120.435L119.14 121.404C119.273 121.624 119.317 121.888 119.229 122.13C119.14 122.372 118.964 122.57 118.721 122.658L117.641 123.077C117.574 123.165 117.464 123.165 117.354 123.165Z" fill="#FF7B69"/>
<path d="M116.428 119.599C116.141 119.599 115.854 119.467 115.7 119.203L114.31 117.024C114.046 116.628 114.178 116.1 114.575 115.836C114.972 115.571 115.501 115.703 115.766 116.1L117.155 118.279C117.42 118.675 117.288 119.203 116.891 119.467C116.736 119.555 116.582 119.599 116.428 119.599ZM113.649 115.241C113.362 115.241 113.075 115.109 112.921 114.845L111.531 112.666C111.267 112.27 111.399 111.742 111.796 111.478C112.193 111.214 112.722 111.346 112.987 111.742L114.377 113.921C114.641 114.317 114.509 114.845 114.112 115.109C113.98 115.197 113.803 115.241 113.649 115.241Z" fill="#FF7B69"/>
<path d="M110.87 110.883C110.583 110.883 110.296 110.751 110.142 110.487L109.524 109.519C109.26 109.123 109.392 108.594 109.789 108.33C110.186 108.066 110.715 108.198 110.98 108.594L111.598 109.563C111.862 109.959 111.73 110.487 111.333 110.751C111.201 110.839 111.046 110.883 110.87 110.883Z" fill="#FF7B69"/>
<path d="M107.275 106.173C107.275 105.359 107.936 104.699 108.753 104.699C109.569 104.699 110.23 105.359 110.23 106.173C110.23 106.988 109.569 107.648 108.753 107.648C107.914 107.648 107.275 106.988 107.275 106.173Z" fill="#1C3A3E"/>
<path d="M95.7181 147.001C95.7181 146.341 96.2475 145.812 96.9091 145.812C97.5707 145.812 98.1001 146.341 98.1001 147.001C98.1001 147.661 97.5707 148.189 96.9091 148.189C96.2475 148.189 95.7181 147.661 95.7181 147.001Z" fill="#1C3A3E"/>
<path d="M121.765 175.151C122.581 172.378 123.573 170.727 123.573 170.727C123.573 170.727 129.705 170.771 129.991 171.299C130.675 172.532 131.469 175.283 132.131 176.537C132.417 177.088 133.256 178.981 132.748 179.333C132.307 179.641 130.918 178.452 130.344 177.814C129.837 181.82 127.301 187.454 127.742 178.959C127.742 178.959 127.742 178.959 127.72 178.959C127.587 179.817 126.904 184.549 125.823 183.933C124.875 183.382 125.228 179.971 125.426 178.562C125.404 178.562 125.404 178.562 125.382 178.562C125.073 179.971 124.213 183.36 123.463 182.546C122.537 181.534 122.846 177.77 122.846 177.77C122.846 177.77 122.36 182.568 121.147 181.534C120.309 180.829 121.324 177 121.611 175.657C121.655 175.481 121.699 175.305 121.765 175.151Z" fill="#FCBDB6"/>
<path d="M170.352 150.214C175.535 151.183 185.79 153.185 193.443 147.837C197.766 144.822 201.207 140.618 201.361 140.508L195.693 132.475L198.516 136.48L195.693 132.453C192.738 134.566 187.863 141.058 181.026 139.386C177.917 138.637 174.322 138.153 170.572 132.673L160.714 136.106C163.824 142.269 162.897 149.114 170.352 150.214Z" fill="#D41E45"/>
<path d="M187.952 141.565C187.952 141.565 191.172 136.81 194.436 135.358C197.7 133.905 199.795 135.116 199.795 135.116L203.302 133.729C203.302 133.729 203.809 146.935 194.678 144.602C193.951 144.404 187.952 141.565 187.952 141.565Z" fill="#FCBDB6"/>
<path d="M202.773 126.84L199.42 145.966C199.2 147.221 197.987 148.035 196.729 147.793L187.731 145.988C186.518 145.746 185.724 144.602 185.945 143.391L189.253 124.529C189.473 123.297 190.642 122.482 191.877 122.68L200.92 124.199C202.155 124.441 202.993 125.608 202.773 126.84Z" fill="#1C3A3E"/>
<path d="M201.383 126.598C201.361 126.07 200.92 125.652 200.391 125.674C199.861 125.696 199.442 126.114 199.464 126.642C199.486 127.17 199.927 127.589 200.457 127.567C200.964 127.545 201.383 127.104 201.383 126.598Z" fill="white"/>
<path d="M204.846 134.169C204.846 134.169 206.037 131.594 203.655 130.538C200.633 129.195 195.561 130.406 197.457 131.286C199.155 132.056 201.824 132.607 201.824 132.607C201.824 132.607 195.031 131.352 195.23 132.827C195.45 134.323 201.317 135.314 201.317 135.314C201.317 135.314 194.568 134.698 195.252 136.04C195.913 137.383 201.229 138.329 201.229 138.329C201.229 138.329 194.678 137.383 195.494 138.923C196.31 140.464 199.795 140.266 201.295 140.53C202.706 140.772 203.324 139.936 203.456 138.571C203.456 138.571 204.382 137.295 204.25 136.37C204.206 136.018 204.581 135.754 204.647 135.512C204.779 135.05 204.846 134.169 204.846 134.169Z" fill="#FCBDB6"/>
<path d="M135.483 171.123C135.527 172.51 143.974 173.06 154.428 172.73C164.882 172.4 173.219 170.969 173.197 169.583C173.153 168.196 164.75 167.382 154.296 167.712C143.842 168.042 135.461 169.737 135.483 171.123Z" fill="#1C3A3E"/>
<path d="M138.041 131.946C138.041 131.946 139.894 124.683 153.524 124.617C173.197 124.507 171.366 142.401 173.175 169.605C173.175 169.605 161.243 164.674 135.483 171.123C135.483 171.123 133.785 143.039 138.041 131.946Z" fill="#D41E45"/>
<path d="M133.013 130.912L141.923 135.798C141.923 135.798 161.839 140.156 167.022 139.298C172.204 138.461 173.197 136.348 173.197 136.348C173.197 136.348 167.683 126.422 158.31 124.925C157.428 124.793 156.523 124.683 155.575 124.617C153.987 124.507 152.399 124.529 150.833 124.705C138.946 126.048 133.013 130.912 133.013 130.912Z" fill="#D41E45"/>
<path d="M151.649 122.967L152.686 119.687L152.995 118.719L154.759 113.084L155.002 118.675L155.134 122.042L155.178 123.099C155.2 123.825 155.663 123.979 156.193 124.595C156.413 124.859 157.825 126.4 156.215 127.082C154.23 127.941 150.524 126.642 149.113 124.925C149.113 124.925 151.318 124.023 151.649 122.967Z" fill="#FCBDB6"/>
<path d="M130.388 173.5C131.204 164.564 133.079 151.777 137.402 141.675C138.394 139.32 138.813 138.439 139.585 137.163C140.203 136.128 139.1 133.861 137.314 132.783C135.66 131.77 133.079 131.946 132.66 132.431C131.954 133.289 131.227 134.918 130.08 137.515C126.066 146.539 123.662 158.182 122.691 173.192L130.388 173.5Z" fill="#FCBDB6"/>
<path d="M159.28 110.971C159.28 110.971 159.633 112.336 159.28 114.053C158.927 115.77 157.163 111.566 157.163 111.566L159.28 110.971Z" fill="#5C305D"/>
<path d="M155.303 121.151C158.066 120.773 159.94 117.791 159.487 114.492C159.034 111.192 156.426 108.823 153.663 109.2C150.899 109.578 149.026 112.559 149.478 115.859C149.931 119.159 152.539 121.528 155.303 121.151Z" fill="#FCBDB6"/>
<path d="M154.737 114.933C154.759 114.911 154.781 114.889 154.781 114.845C154.781 114.779 154.737 114.735 154.693 114.735C154.649 114.735 153.899 114.603 153.502 115.395C153.48 115.439 153.502 115.505 153.546 115.527C153.59 115.549 153.656 115.527 153.678 115.483C154.031 115.043 154.627 114.933 154.649 114.933C154.693 114.955 154.715 114.933 154.737 114.933Z" fill="#080435"/>
<path d="M154.296 116.232C154.362 116.474 154.561 116.628 154.715 116.562C154.891 116.518 154.98 116.298 154.913 116.056C154.847 115.814 154.649 115.659 154.494 115.725C154.318 115.769 154.23 115.99 154.296 116.232Z" fill="#080435"/>
<path d="M158.53 114.625C158.553 114.625 158.575 114.603 158.597 114.581C158.619 114.537 158.597 114.471 158.553 114.449C158.53 114.427 158.001 114.009 157.516 114.559C157.494 114.603 157.494 114.647 157.516 114.691C157.538 114.735 157.582 114.735 157.626 114.713C158.001 114.471 158.464 114.603 158.486 114.625C158.508 114.625 158.508 114.625 158.53 114.625Z" fill="#080435"/>
<path d="M157.604 115.659C157.582 115.902 157.692 116.122 157.869 116.144C158.045 116.166 158.222 115.99 158.244 115.748C158.266 115.505 158.155 115.285 157.979 115.263C157.803 115.241 157.626 115.417 157.604 115.659Z" fill="#080435"/>
<path d="M146.091 114.273C146.091 114.273 147.79 117.882 150.172 118.147C150.172 118.147 148.231 115.395 152.311 113.723C152.333 113.723 148.584 113.128 146.091 114.273Z" fill="#501506"/>
<path d="M149.488 116.254C149.995 116.584 150.657 116.474 150.944 116.012C151.23 115.549 151.054 114.933 150.547 114.603C150.039 114.273 149.378 114.383 149.091 114.845C148.782 115.307 148.959 115.946 149.488 116.254Z" fill="#FCBDB6"/>
<path d="M152.333 113.723C152.333 113.723 152.002 116.76 152.62 117.332C153.237 117.904 157.362 118.147 159.28 117.42C159.302 119.357 157.935 121.074 155.994 121.404C155.355 121.514 154.693 121.514 154.031 121.404C152.686 121.162 151.385 120.612 150.833 119.379C150.657 119.005 151.164 116.694 151.164 116.694C151.164 116.694 151.341 115.329 150.547 114.625C150.525 114.625 151.451 113.789 152.333 113.723Z" fill="#501506"/>
<path d="M152.333 113.723C152.333 113.723 152.002 111.61 153.678 111.456C155.355 111.302 157.273 111.015 157.935 111.456C158.597 111.896 159.369 113.569 159.369 113.569C159.369 113.569 160.295 110.399 158.597 109.035C156.898 107.67 151.539 105.887 148.098 108.264C144.658 110.619 146.091 114.273 146.091 114.273C146.091 114.273 148.54 113.525 152.333 113.723Z" fill="#501506"/>
<path d="M149.995 108.242C149.995 108.242 147.459 106.173 148.032 104.655C148.606 103.136 151.274 103.62 152.311 103.84C153.348 104.083 153.524 105.909 152.686 107.098C151.87 108.264 149.995 108.242 149.995 108.242Z" fill="#501506"/>
<path d="M153.899 237.812C155.112 237.746 156.237 238.362 156.832 239.418C157.119 239.903 157.516 240.365 158.111 240.607C159.942 241.355 165.235 242.037 163.25 243.754C162.125 244.745 156.766 244.106 155.266 244.106C153.767 244.106 152.333 244.767 151.23 243.754C150.569 243.16 150.613 241.267 150.811 239.66C150.944 238.494 152.002 237.658 153.171 237.79C153.348 237.812 153.524 237.834 153.7 237.812C153.767 237.812 153.833 237.812 153.899 237.812Z" fill="#1C3A3E"/>
<path d="M135.263 237.173C135.263 237.173 135.329 239.837 137.159 240.607C138.99 241.355 144.283 242.038 142.298 243.754C141.173 244.745 135.814 244.106 134.314 244.106C132.814 244.106 131.381 244.767 130.278 243.754C129.043 242.654 130.278 237.173 130.278 237.173C130.278 237.173 131.579 237.856 132.748 237.812C134.424 237.768 135.263 237.173 135.263 237.173Z" fill="#1C3A3E"/>
<path d="M167.529 169.979C168.345 170.067 169.006 170.705 169.117 171.519C169.315 173.148 169.337 176.582 168.367 183.713C166.911 194.189 161.464 232.397 160.559 237.482C160.229 239.308 159.854 240.431 157.207 240.805L153.656 240.739C150.767 241.157 149.664 238.098 149.642 236.139L151.958 177.286L142.739 170.331C142.739 170.331 149.642 169.45 157.428 169.472C161.817 169.45 165.654 169.781 167.529 169.979Z" fill="#49ADB7"/>
<path d="M158.861 171.938L138.549 236.557C137.689 239.264 135.24 241.113 132.44 241.157L131.227 241.179C128.337 241.223 126.132 238.582 126.661 235.721L137.777 175.019C137.931 174.293 138.35 171.101 139.056 170.903C142.849 169.803 159.236 169.252 158.861 171.938Z" fill="#49ADB7"/>
<path d="M149.775 200.814L149.444 200.704L153.811 187.564C154.825 184.527 156.898 181.996 159.655 180.433L159.832 180.719C157.141 182.238 155.134 184.703 154.142 187.674L149.775 200.814Z" fill="#333333"/>
<path d="M144.768 126.268C144.768 126.268 142.651 124.331 145.187 123.649C146.202 123.385 147.701 120.92 149.091 121.118C150.502 121.338 151.318 129.151 156.942 131.572C156.942 131.572 158.332 132.761 156.082 132.717C153.833 132.651 144.768 126.268 144.768 126.268Z" fill="#49ADB7"/>
<path d="M156.965 131.572C156.965 131.572 159.788 128.821 159.28 126.268C158.795 123.715 160.229 121.514 160.912 122.68C161.596 123.847 162.412 123.121 162.566 124.573C162.721 126.026 160.56 133.135 158.575 133.135C156.612 133.135 156.965 131.572 156.965 131.572Z" fill="#49ADB7"/>
<path d="M156.325 132.1C156.325 132.1 154.516 132.915 155.178 134.83C155.862 136.744 154.913 137.515 154.913 137.515C154.913 137.515 157.119 137.625 157.384 135.556C157.648 133.509 156.325 132.1 156.325 132.1Z" fill="#49ADB7"/>
<path d="M157.362 132.1C157.362 132.1 159.677 132.871 159.766 134.367C159.876 135.864 158.53 136.216 158.067 135.314C157.604 134.433 156.634 132.695 156.634 132.695L157.362 132.1Z" fill="#49ADB7"/>
<path d="M150.811 119.357C150.811 119.357 150.833 121.448 152.311 122.614C153.811 123.781 152.818 124.793 154.119 126.466C155.443 128.117 153.877 128.161 156.193 129.371C158.508 130.582 160.273 129.481 159.81 127.633C159.346 125.784 161.376 126.268 160.427 123.935C159.479 121.602 158.773 123.033 159.589 120.546C160.383 118.058 159.258 117.398 159.258 117.398C159.258 117.398 157.979 117.486 156.942 117.662C155.906 117.838 154.98 117.53 154.252 117.75C153.546 117.992 150.811 119.357 150.811 119.357Z" fill="#501506"/>
<path d="M158.266 118.499C158.266 118.499 156.7 118.917 154.98 118.763C154.98 118.763 155.222 120.347 156.965 120.017C157.979 119.841 158.266 118.499 158.266 118.499Z" fill="white"/>
<path d="M122.691 170.001C122.691 170.001 128.006 170.573 130.741 170.001C130.741 170.001 131.094 171.409 130.521 172.048C130.521 172.048 124.169 172.532 122.669 172.048C122.691 172.026 121.589 170.969 122.691 170.001Z" fill="#1C3A3E"/>
<path d="M126.132 173.192H126.044C125.007 173.192 124.147 172.334 124.147 171.299V170.947C124.147 169.913 125.007 169.054 126.044 169.054H126.132C127.168 169.054 128.029 169.913 128.029 170.947V171.299C128.029 172.334 127.168 173.192 126.132 173.192Z" fill="#49ADB7"/>
<path d="M133.013 130.912C133.013 130.912 128.514 133.553 124.147 150.875C119.78 168.196 123.066 168.504 123.066 168.504C123.066 168.504 128.977 168.614 130.874 167.954C132.77 167.294 133.785 151.755 137.578 145.46C141.35 139.121 142.695 129.459 133.013 130.912Z" fill="#D41E45"/>
<path d="M157.406 143.303C157.406 142.929 157.714 142.643 158.067 142.643C158.442 142.643 158.729 142.951 158.729 143.303C158.729 143.677 158.42 143.964 158.067 143.964C157.714 143.964 157.406 143.677 157.406 143.303Z" fill="#5C305D"/>
<path d="M158.089 152.063C158.455 152.063 158.751 151.767 158.751 151.403C158.751 151.038 158.455 150.742 158.089 150.742C157.724 150.742 157.428 151.038 157.428 151.403C157.428 151.767 157.724 152.063 158.089 152.063Z" fill="#5C305D"/>
<path d="M158.089 161.637C158.455 161.637 158.751 161.341 158.751 160.977C158.751 160.612 158.455 160.317 158.089 160.317C157.724 160.317 157.428 160.612 157.428 160.977C157.428 161.341 157.724 161.637 158.089 161.637Z" fill="#5C305D"/>
<path d="M135.307 151.667L134.976 151.579C136.255 146.164 138.483 141.124 138.505 141.058L138.813 141.19C138.791 141.256 136.586 146.275 135.307 151.667Z" fill="#5C305D"/>
<path d="M171.918 150.742C171.543 144.712 168.521 136.987 168.499 136.899L168.808 136.766C168.83 136.855 171.874 144.624 172.249 150.72L171.918 150.742Z" fill="#5C305D"/>
<path d="M336.668 234.114C336.668 234.114 325.949 234.444 324.626 232.067C319.774 223.263 324.824 202.883 330.558 197.777C336.293 192.67 340.527 201.584 340.527 201.584L336.668 234.114Z" fill="#1C3A3E"/>
<path d="M341.895 204.621C341.895 204.621 339.932 197.446 335.587 199.691C331.242 201.936 331.441 233.982 336.668 234.114C341.895 234.246 344.056 214.724 341.895 204.621Z" fill="#24555E"/>
<path d="M340.417 207.329C340.417 207.329 339.226 201.76 336.579 203.499C333.933 205.238 334.065 230.086 337.241 230.196C340.417 230.306 341.74 215.164 340.417 207.329Z" fill="#49ADB7"/>
<path d="M295.16 243.974C295.16 243.974 280.825 244.921 279.347 241.839C274.649 232.045 269.996 205.414 286.515 196.764C300.806 189.281 304.688 208.209 304.688 208.209L295.16 243.974Z" fill="#1C3A3E"/>
<path d="M302.108 207.615C302.108 207.615 299.505 198.767 293.727 201.518C287.948 204.291 288.235 243.82 295.16 243.974C302.108 244.128 304.997 220.05 302.108 207.615Z" fill="#24555E"/>
<path d="M300.167 210.938C300.167 210.938 298.579 204.071 295.072 206.228C291.565 208.363 291.742 239.022 295.954 239.154C300.167 239.264 301.909 220.6 300.167 210.938Z" fill="#49ADB7"/>
<path d="M295.138 238.78L294.962 238.45C296.55 237.592 297.851 233.476 298.447 227.423C299.02 221.723 298.866 215.428 298.05 211.004L298.424 210.938C300.012 219.632 298.998 236.689 295.138 238.78Z" fill="#1C3A3E"/>
<path d="M207.823 209.42C207.823 209.42 207.25 207.725 206.015 206.162C206.015 206.162 200.391 196.698 192.782 202.112C185.173 207.527 187.863 236.513 189.495 239.088C191.127 241.685 200.876 240.739 200.876 240.739C207.823 240.893 210.712 220.138 207.823 209.42Z" fill="#1C3A3E"/>
<path d="M203.456 167.514C203.456 167.514 179.835 177.286 181.842 199.691C181.842 199.691 179.659 200.021 178.799 204.401C177.961 208.781 182.35 229.338 185.548 229.844C188.746 230.35 281.089 233.036 283.449 231.693C285.809 230.35 288.169 227.137 288.015 219.39C287.838 211.642 289.977 195.51 296.792 196.192C302.615 196.786 304.004 215.978 302.615 228.061C301.931 234.07 310.466 225.618 317.899 224.936C325.331 224.254 330.205 225.376 330.536 221.173C330.867 216.969 329.786 198.987 336.226 198.701C342.292 198.437 342.733 210.85 342.733 210.85C343.416 210.014 344.232 200.44 342.38 196.17C340.527 191.922 343.218 174.579 338.829 172.048C334.44 169.516 337.638 143.413 312.495 138.351C287.353 133.289 236.208 135.204 226.239 140.728C216.292 146.275 203.456 167.514 203.456 167.514Z" fill="#334747"/>
<path d="M245.625 196.368H210.205C208.661 196.368 207.183 195.774 206.103 194.673L205.375 193.947C204.36 192.934 202.993 192.362 201.537 192.362H198.295V191.988H201.537C203.081 191.988 204.559 192.582 205.64 193.683L206.367 194.409C207.382 195.422 208.749 195.994 210.205 195.994H245.603C246.507 195.994 247.411 195.774 248.205 195.334L252.991 192.714C253.851 192.252 254.8 192.01 255.792 192.01H260.534V192.384H255.792C254.888 192.384 253.984 192.604 253.19 193.045L248.404 195.664C247.566 196.126 246.595 196.368 245.625 196.368Z" fill="#1C3A3E"/>
<path d="M295.668 140.2C297.278 140.354 298.38 141.851 298.049 143.413C297.498 146.164 296.726 150.72 296.638 155.54C296.462 163.288 300.52 167.998 287.684 168.856C274.848 169.693 204.824 170.001 205.331 167.646C205.838 165.291 223.526 142.797 228.599 141.234C233.098 139.826 282.699 139.011 295.668 140.2Z" fill="white"/>
<path d="M193.73 219.61C193.73 221.833 192.076 224.21 189.54 224.21C186.981 224.21 185.349 221.833 185.349 219.61C185.349 217.387 187.422 215.296 189.959 215.296C192.495 215.296 193.73 217.387 193.73 219.61Z" fill="#1C3A3E"/>
<path d="M274.649 219.61C274.649 221.833 272.995 224.21 270.459 224.21C267.9 224.21 266.268 221.833 266.268 219.61C266.268 217.387 268.342 215.296 270.878 215.296C273.414 215.296 274.649 217.387 274.649 219.61Z" fill="#1C3A3E"/>
<path d="M178.821 204.401C178.821 204.401 178.38 207.945 185.349 208.869C192.318 209.794 198.406 208.121 200.082 213.843C201.78 219.566 198.384 224.958 209.543 226.477C220.681 227.995 249.154 229.668 250.786 225.134C252.418 220.578 249.044 213.007 256.123 211.664C263.203 210.322 279.413 211.995 283.295 209.816C287.176 207.637 287.353 204.93 284.993 203.081C282.633 201.232 194.524 201.386 189.54 201.386C184.555 201.386 178.821 200.858 178.821 204.401Z" fill="#1C3A3E"/>
<path d="M210.139 207.923L244.236 207.659C245.382 207.659 246.243 208.715 246 209.838L245.228 213.293C245.052 214.108 244.324 214.68 243.486 214.68H210.999C210.183 214.68 209.477 214.13 209.279 213.359L208.441 210.168C208.132 209.023 208.97 207.923 210.139 207.923Z" fill="white"/>
<path d="M323.302 178.716C323.721 180.191 323.236 181.622 322.222 181.908C321.207 182.194 320.06 181.225 319.641 179.751C319.222 178.276 319.707 176.846 320.722 176.559C321.736 176.273 322.905 177.22 323.302 178.716Z" fill="#1C3A3E"/>
<path d="M337.462 177.11C337.881 178.584 337.395 180.015 336.381 180.301C335.366 180.587 334.22 179.619 333.8 178.144C333.381 176.67 333.867 175.239 334.881 174.953C335.896 174.667 337.043 175.635 337.462 177.11Z" fill="#1C3A3E"/>
<path d="M332.146 166.941C332.146 166.941 332.235 154.022 324.912 148.74C317.59 143.457 307.026 141.102 304.997 142.665C302.968 144.228 302.637 164.894 304.423 166.919C306.254 168.966 330.272 168.966 332.146 166.941Z" fill="white"/>
<path d="M309.628 172.488C309.628 172.488 306.342 169.362 308.018 164.146C309.716 158.93 322.707 162.451 324.052 165.071C325.398 167.69 320.082 172.136 316.531 172.906C312.981 173.654 313.753 180.059 311.04 179.729C308.349 179.399 306.188 177.55 307.511 176.361C308.856 175.173 311.304 173.478 309.628 172.488Z" fill="#24555E"/>
<path d="M291.433 153.031C291.433 153.031 293.572 144.998 292.381 143.589C291.19 142.203 280.736 141.3 280.736 142.687C280.736 144.074 284.839 144.866 285.919 147.507C287 150.148 290.816 155.607 291.433 153.031Z" fill="#24555E"/>
<path d="M275.134 185.451L274.782 185.297C275.664 183.206 277.891 180.367 281.398 176.868C284.001 174.27 286.382 172.246 286.405 172.224L286.647 172.51C286.559 172.576 277.186 180.565 275.134 185.451Z" fill="#1C3A3E"/>
<path d="M190.951 183.845H190.929C190.885 183.823 190.863 183.779 190.885 183.735C193.046 177.748 203.214 170.639 203.324 170.573C203.368 170.551 203.412 170.551 203.456 170.595C203.478 170.639 203.478 170.683 203.434 170.727C203.412 170.749 200.854 172.532 198.053 175.019C195.472 177.308 192.186 180.697 191.061 183.801C191.039 183.823 190.995 183.845 190.951 183.845Z" fill="#1C3A3E"/>
<path d="M197.778 193.12C202.002 189.711 203.613 184.71 201.376 181.95C199.139 179.191 193.902 179.717 189.678 183.127C185.454 186.536 183.843 191.537 186.08 194.297C188.317 197.057 193.554 196.53 197.778 193.12Z" fill="#8BC0CC"/>
<path d="M191.877 195.664C189.981 195.664 188.459 194.959 187.599 193.661C186.65 192.23 186.628 190.205 187.533 188.114C189.297 183.999 194.105 180.631 198.229 180.631C198.891 180.631 199.508 180.719 200.06 180.895C200.104 180.917 200.126 180.961 200.126 181.005C200.104 181.049 200.06 181.071 200.016 181.071C199.464 180.917 198.869 180.829 198.229 180.829C194.171 180.829 189.429 184.131 187.687 188.202C186.805 190.249 186.827 192.208 187.753 193.573C188.569 194.805 190.025 195.488 191.877 195.488C192.671 195.488 193.509 195.356 194.348 195.113C194.392 195.091 194.436 195.135 194.458 195.179C194.48 195.223 194.436 195.267 194.392 195.289C193.554 195.532 192.693 195.664 191.877 195.664Z" fill="#1C3A3E"/>
<path d="M272.323 193.12C276.547 189.71 278.158 184.709 275.921 181.949C273.684 179.19 268.447 179.717 264.223 183.126C259.999 186.536 258.389 191.537 260.625 194.296C262.862 197.056 268.1 196.529 272.323 193.12Z" fill="#8BC0CC"/>
<path d="M266.445 195.664C264.548 195.664 263.026 194.959 262.166 193.661C261.218 192.23 261.196 190.205 262.1 188.114C263.864 183.999 268.672 180.631 272.797 180.631C273.458 180.631 274.076 180.719 274.627 180.895C274.671 180.917 274.693 180.961 274.693 181.005C274.671 181.049 274.627 181.071 274.583 181.071C274.032 180.917 273.436 180.829 272.797 180.829C268.739 180.829 263.997 184.131 262.254 188.202C261.372 190.249 261.394 192.208 262.321 193.573C263.137 194.805 264.592 195.488 266.445 195.488C267.239 195.488 268.077 195.356 268.915 195.113C268.959 195.091 269.003 195.135 269.025 195.179C269.047 195.223 269.003 195.267 268.959 195.289C268.099 195.532 267.239 195.664 266.445 195.664Z" fill="#1C3A3E"/>
<path d="M327.779 205.04C327.779 205.04 327.757 205.04 327.779 205.04C327.713 205.04 327.691 204.996 327.691 204.93C328.573 198.965 332.587 196.06 334.903 194.849C335.984 194.299 336.645 193.199 336.645 192.01V185.363C336.645 185.319 336.69 185.275 336.734 185.275C336.778 185.275 336.822 185.319 336.822 185.363V192.01C336.822 193.265 336.116 194.431 334.991 195.025C332.72 196.214 328.75 199.075 327.89 204.974C327.846 205.018 327.824 205.04 327.779 205.04Z" fill="#1C3A3E"/>
<path d="M327.779 185.451C327.779 185.451 327.757 185.451 327.779 185.451C327.713 185.451 327.691 185.407 327.691 185.341C328.441 179.377 325.662 169.737 325.64 169.627C325.618 169.582 325.662 169.538 325.706 169.516C325.75 169.494 325.795 169.538 325.817 169.582C325.839 169.671 328.64 179.355 327.868 185.363C327.868 185.429 327.824 185.451 327.779 185.451Z" fill="#1C3A3E"/>
<path d="M227.915 191.878C227.915 192.472 226.923 192.956 225.687 192.956C224.452 192.956 223.46 192.472 223.46 191.878C223.46 191.284 224.452 190.8 225.687 190.8C226.923 190.8 227.915 191.284 227.915 191.878Z" fill="#E3EEEC"/>
<path d="M109.392 45.2733C109.392 31.4074 97.0415 21.8333 83.3013 21.8333C63.3857 21.8333 56.5487 33.0801 56.5487 46.9461C56.5487 60.812 72.3179 70.6502 86.0581 70.6502C99.8204 70.6502 109.392 59.1393 109.392 45.2733Z" fill="#D41E45"/>
<path d="M113.737 67.5249C113.737 67.5249 105.025 66.1603 104.408 57.4445L97.5707 62.4847C97.5707 62.4847 100.835 70.5181 113.737 67.5249Z" fill="#D41E45"/>
<path d="M86.4551 73.5554C79.574 73.5554 72.1194 71.0684 66.4734 66.8866C60.2539 62.2866 56.8134 56.19 56.8134 49.7633C56.8134 42.192 58.8203 36.2055 62.7461 31.9356C67.2674 27.0275 74.3249 24.5405 83.6762 24.5405C90.5573 24.5405 97.0414 26.8735 101.96 31.0773C107.076 35.4571 109.899 41.5097 109.899 48.0685C109.899 53.6369 108.378 58.8752 105.533 63.211C107.606 69.1315 114.112 70.21 114.178 70.21L114.729 70.298L114.178 70.4301C110.252 71.3325 104.717 71.7507 100.636 68.6253C96.6224 71.8387 91.7262 73.5554 86.4551 73.5554ZM83.6762 24.7386C74.3911 24.7386 67.3997 27.2036 62.9005 32.0677C58.9968 36.2935 57.0118 42.236 57.0118 49.7633C57.0118 56.146 60.4083 62.1546 66.5837 66.7325C72.1856 70.8703 79.6181 73.3573 86.4551 73.3573C91.7042 73.3573 96.5783 71.6626 100.548 68.4272L100.614 68.3832L100.68 68.4272C104.54 71.4425 109.767 71.1784 113.627 70.3421C112.039 69.9679 107.054 68.3612 105.29 63.255L105.268 63.211L105.29 63.167C108.157 58.8311 109.657 53.6149 109.657 48.0905C109.657 41.5758 106.878 35.6112 101.805 31.2534C96.9532 27.0496 90.5132 24.7386 83.6762 24.7386Z" fill="#D41E45"/>
<path d="M84.0511 46.1317C84.0291 46.1317 84.0291 46.1317 84.007 46.1317C83.7644 46.1097 83.5659 45.9336 83.4998 45.6915V45.6695L83.0366 41.4877C82.8161 40.5413 82.7279 40.3212 81.8015 40.0351L78.2507 39.3968C78.0081 39.3308 77.8537 39.1327 77.8317 38.8906C77.8096 38.6485 77.9419 38.4284 78.1625 38.3404L86.9844 34.5107C87.4255 34.3127 87.8887 34.4007 88.2416 34.7308C88.5724 35.061 88.6827 35.5232 88.5062 35.9634L84.5805 45.7796C84.4922 45.9997 84.2938 46.1317 84.0511 46.1317ZM83.8306 45.6475C83.8527 45.7576 83.9629 45.8236 84.0511 45.8236C84.1394 45.8236 84.2496 45.8016 84.2938 45.6695L88.2195 35.8753C88.3739 35.5012 88.2195 35.171 88.021 34.995C87.8225 34.8189 87.4917 34.6648 87.1388 34.8409L78.3169 38.6705C78.1846 38.7366 78.1625 38.8686 78.1846 38.9126C78.1846 38.9566 78.2066 39.0887 78.361 39.1327L81.9118 39.771C83.0146 40.1011 83.1469 40.4753 83.3895 41.4877V41.5097L83.8306 45.6475Z" fill="white"/>
<path d="M71.7666 49.9393V50.1814C71.7666 50.2035 71.7666 50.2475 71.7445 50.2695L70.0683 53.747C70.0242 53.813 69.9581 53.857 69.8698 53.857H69.517C69.3626 53.857 69.2523 53.6809 69.3185 53.5489L70.9064 50.3575V50.3355H69.1641C69.0538 50.3355 68.9435 50.2475 68.9435 50.1154V49.8953C68.9435 49.7853 69.0318 49.6752 69.1641 49.6752H71.524C71.6783 49.7193 71.7666 49.8293 71.7666 49.9393Z" fill="white"/>
<path d="M73.8176 51.7001C73.8176 51.436 73.8176 51.2159 73.7956 50.9958C73.7956 50.8637 73.8838 50.7757 74.0161 50.7757H74.2587C74.369 50.7757 74.4572 50.8637 74.4793 50.9738L74.5013 51.2379H74.5234C74.6778 50.9958 74.9424 50.7097 75.4938 50.7097C75.9129 50.7097 76.2216 50.9298 76.354 51.2819H76.376C76.4863 51.1058 76.6186 50.9738 76.7509 50.8857C76.9274 50.7537 77.1259 50.7097 77.3905 50.7097C77.8978 50.7097 78.4271 51.0618 78.4271 52.0522V53.6809C78.4271 53.791 78.3389 53.901 78.2066 53.901H77.8537C77.7434 53.901 77.6331 53.813 77.6331 53.6809V52.1623C77.6331 51.6341 77.4567 51.3479 77.0818 51.3479C76.8171 51.3479 76.6186 51.546 76.5304 51.7661C76.5083 51.8322 76.4863 51.9422 76.4863 52.0302V53.6809C76.4863 53.791 76.3981 53.901 76.2657 53.901H75.9349C75.8246 53.901 75.7144 53.813 75.7144 53.6809V52.0963C75.7144 51.6561 75.5379 51.3479 75.185 51.3479C74.8983 51.3479 74.6998 51.568 74.6116 51.7881C74.5896 51.8762 74.5675 51.9642 74.5675 52.0522V53.6809C74.5675 53.791 74.4793 53.901 74.347 53.901H74.0161C73.9059 53.901 73.7956 53.813 73.7956 53.6809V51.7001H73.8176Z" fill="white"/>
<path d="M80.0812 49.8953C80.0812 50.1154 79.9048 50.3135 79.6401 50.3135C79.3755 50.3135 79.199 50.1154 79.199 49.8953C79.199 49.6532 79.3755 49.4771 79.6401 49.4771C79.9048 49.4771 80.0812 49.6532 80.0812 49.8953ZM79.2431 53.6809V50.9958C79.2431 50.8857 79.3314 50.7757 79.4637 50.7757H79.8166C79.9268 50.7757 80.0371 50.8637 80.0371 50.9958V53.6809C80.0371 53.791 79.9489 53.901 79.8166 53.901H79.4637C79.3314 53.879 79.2431 53.791 79.2431 53.6809Z" fill="white"/>
<path d="M80.8752 51.7001C80.8752 51.436 80.8752 51.2159 80.8531 50.9958C80.8531 50.8637 80.9414 50.7757 81.0737 50.7757H81.3384C81.4486 50.7757 81.5368 50.8637 81.5589 50.9738L81.581 51.2379H81.603C81.7353 50.9958 82.0882 50.7097 82.5955 50.7097C83.1469 50.7097 83.6982 51.0618 83.6982 52.0522V53.6809C83.6982 53.791 83.61 53.901 83.4777 53.901H83.1248C83.0145 53.901 82.9042 53.813 82.9042 53.6809V52.1403C82.9042 51.7001 82.7278 51.3479 82.3088 51.3479C82 51.3479 81.7795 51.568 81.6912 51.8101C81.6692 51.8762 81.6471 51.9642 81.6471 52.0522V53.6809C81.6471 53.791 81.5589 53.901 81.4266 53.901H81.0737C80.9634 53.901 80.8531 53.813 80.8531 53.6809V51.7001H80.8752Z" fill="white"/>
<path d="M87.3373 52.9546C87.3373 53.2187 87.3373 53.4608 87.3594 53.6589C87.3594 53.791 87.2711 53.879 87.1388 53.879H86.8741C86.7639 53.879 86.6757 53.791 86.6536 53.6809L86.6315 53.4168H86.6095C86.4772 53.6369 86.1684 53.9451 85.595 53.9451C85.0215 53.9451 84.5143 53.6149 84.5143 52.5805V50.9738C84.5143 50.8637 84.6025 50.7537 84.7348 50.7537H85.0877C85.198 50.7537 85.3083 50.8417 85.3083 50.9738V52.4484C85.3083 52.9766 85.4847 53.3068 85.8817 53.3068C86.2125 53.3068 86.411 53.0867 86.4772 52.8886C86.4992 52.8226 86.5213 52.7345 86.5213 52.6465V50.9738C86.5213 50.8637 86.6095 50.7537 86.7418 50.7537H87.0947C87.205 50.7537 87.3152 50.8417 87.3152 50.9738V52.9546H87.3373Z" fill="white"/>
<path d="M89.1017 50.2475V50.5556C89.1017 50.6657 89.1899 50.7757 89.3222 50.7757H89.653C89.7633 50.7757 89.8736 50.8637 89.8736 50.9958V51.1499C89.8736 51.2599 89.7854 51.37 89.653 51.37H89.3222C89.2119 51.37 89.1017 51.458 89.1017 51.5901V52.7565C89.1017 53.1307 89.2119 53.3288 89.4987 53.3288C89.5428 53.3288 89.5648 53.3288 89.5869 53.3288C89.6972 53.3288 89.8074 53.4168 89.8074 53.5269V53.725C89.8074 53.835 89.7413 53.9231 89.631 53.9451C89.5207 53.9671 89.3884 53.9891 89.234 53.9891C88.9473 53.9891 88.7047 53.901 88.5503 53.725C88.3739 53.5489 88.3077 53.2628 88.3077 52.8446V51.5901C88.3077 51.48 88.2195 51.37 88.0871 51.37H88.0651C87.9548 51.37 87.8445 51.2819 87.8445 51.1499V50.9958C87.8445 50.8858 87.9328 50.7757 88.0651 50.7757H88.0871C88.1974 50.7757 88.3077 50.6877 88.3077 50.5556V50.3575C88.3077 50.2695 88.3739 50.1814 88.4621 50.1594L88.815 50.0714C88.9473 50.0054 89.1017 50.1154 89.1017 50.2475Z" fill="white"/>
<path d="M91.2189 52.5585C91.0645 52.5585 90.9763 52.7125 91.0204 52.8446C91.1528 53.1967 91.5277 53.3508 91.9247 53.3508C92.1893 53.3508 92.3878 53.3288 92.5643 53.2848C92.6746 53.2628 92.8069 53.3288 92.8289 53.4388L92.851 53.5709C92.873 53.6809 92.8069 53.791 92.7187 53.813C92.4761 53.901 92.1673 53.9451 91.8144 53.9451C90.7999 53.9451 90.2044 53.3288 90.2044 52.3824C90.2044 51.524 90.7337 50.7097 91.7262 50.7097C92.7407 50.7097 93.0715 51.546 93.0715 52.2283C93.0715 52.2723 93.0715 52.3164 93.0715 52.3604C93.0715 52.4704 92.9833 52.5585 92.851 52.5585H91.2189ZM92.0791 52.0082C92.2114 52.0082 92.3217 51.8762 92.2776 51.7441C92.2114 51.502 92.035 51.2599 91.66 51.2599C91.3072 51.2599 91.1087 51.48 90.9984 51.7441C90.9322 51.8762 91.0425 52.0302 91.1969 52.0302H92.0791V52.0082Z" fill="white"/>
<path d="M93.6009 53.3948C93.645 53.2628 93.7773 53.1967 93.8876 53.2628C94.064 53.3288 94.2846 53.3948 94.461 53.3948C94.8139 53.3948 94.9683 53.2408 94.9683 53.0427C94.9683 52.8226 94.836 52.7345 94.461 52.5805C93.8435 52.3824 93.6009 52.0522 93.6009 51.6781C93.6009 51.1279 94.064 50.7097 94.7698 50.7097C95.0124 50.7097 95.233 50.7537 95.4094 50.8197C95.5197 50.8637 95.5638 50.9738 95.5417 51.0838L95.4976 51.2159C95.4535 51.3259 95.3432 51.414 95.2109 51.37C95.0786 51.3259 94.9242 51.2819 94.7698 51.2819C94.4831 51.2819 94.3287 51.414 94.3287 51.6121C94.3287 51.8101 94.4831 51.8982 94.8801 52.0522C95.4535 52.2503 95.6961 52.5365 95.7182 52.9987C95.7182 53.5709 95.2771 53.9671 94.461 53.9671C94.1743 53.9671 93.9097 53.923 93.6891 53.835C93.5788 53.791 93.5347 53.6809 93.5568 53.5709L93.6009 53.3948Z" fill="white"/>
</g>
<defs>
<clipPath id="clip0_186_330">
<rect width="369" height="262" fill="white"/>
</clipPath>
</defs>
</svg>
