<svg width="142" height="183" viewBox="0 0 142 183" fill="none" xmlns="http://www.w3.org/2000/svg">
<path d="M66.7975 182.123C66.7542 182.123 66.7542 182.123 66.7109 182.123C62.5557 182.08 58.7036 180.223 56.1066 177.026C46.2814 164.975 32.0847 146.359 20.485 126.231C6.46136 101.827 -0.117635 81.5688 0.964433 65.9759C2.26292 47.3595 7.62995 31.5939 16.5462 20.45C26.3714 8.13981 40.1786 1.40162 57.535 0.364974C67.7064 -0.239735 77.4883 1.18565 86.6209 4.59793C95.1044 7.79425 102.809 12.5887 109.518 18.895C123.931 32.4578 132.544 52.0676 132.544 71.3319C132.544 86.536 125.619 105.93 111.898 128.952C100.515 148.087 86.8807 165.71 77.445 177.07C74.8048 180.309 70.9526 182.123 66.7975 182.123ZM57.5782 1.31523C40.4816 2.35187 26.9341 8.96048 17.282 21.0547C8.49563 32.069 3.17186 47.6187 1.91666 66.0623C0.834591 81.4392 7.37025 101.524 21.3073 125.756C32.8638 145.841 47.0173 164.414 56.8425 176.422C59.2663 179.402 62.8587 181.13 66.7542 181.173C66.7974 181.173 66.7975 181.173 66.8408 181.173C70.6929 181.173 74.3287 179.488 76.7525 176.508C86.1449 165.148 99.7789 147.568 111.119 128.477C124.71 105.584 131.635 86.3633 131.635 71.3319C131.635 52.2836 123.152 32.9329 108.912 19.5429C102.289 13.323 94.6716 8.57174 86.318 5.41861C77.3152 2.13591 67.6631 0.710521 57.5782 1.31523ZM65.499 108.133C64.3736 108.133 63.2483 108.09 62.1229 108.046C51.8649 107.614 42.5591 103.77 35.8936 97.2048C29.1415 90.5098 25.4192 81.3096 25.4192 71.2455C25.4192 47.3595 37.4518 34.6606 64.4602 30.0821C73.6794 28.5271 81.73 30.3413 88.3955 35.5245C97.2685 42.4355 103.285 55.3503 104.453 70.0361C105.362 81.7847 102.592 91.1145 96.2297 97.68C89.5209 104.548 78.9599 108.133 65.499 108.133ZM70.6063 30.4277C68.6586 30.4277 66.6676 30.6004 64.59 30.946C50.3933 33.3648 40.4816 38.0297 34.3354 45.2862C28.9684 51.5925 26.3281 60.1016 26.3281 71.2023C26.3281 81.0073 29.9639 90.0347 36.5428 96.5137C43.0353 102.95 52.1246 106.707 62.1662 107.096C76.9689 107.701 88.5254 104.245 95.4939 96.9889C101.683 90.5962 104.324 81.5688 103.458 70.0793C102.333 55.6095 96.4462 42.9538 87.7896 36.2156C82.8121 32.3714 77.0555 30.4277 70.6063 30.4277Z" fill="#1C3A3E"/>
<path d="M67.3601 0.840095C31.3489 2.99977 13.6895 30.0821 11.2224 66.0191C8.75531 101.611 47.2336 153.486 66.2348 176.724C71.5585 183.29 81.5135 183.29 86.8806 176.81C105.319 154.523 141.85 106.016 141.85 71.3319C141.85 35.3949 112.114 -1.8379 67.3601 0.840095ZM71.9481 107.571C51.1724 106.751 35.6772 91.9784 35.6772 71.2023C35.6772 50.4695 44.4635 35.5677 74.3286 30.4709C99.9087 26.1083 112.114 49.3464 113.759 70.0361C115.664 95.1747 100.428 108.781 71.9481 107.571Z" fill="#D41E45"/>
</svg>
