<svg width="20" height="19" viewBox="0 0 20 19" fill="none" xmlns="http://www.w3.org/2000/svg">
<path d="M13.9919 16.0168L13.4505 11.6823C13.3738 11.0684 13.0754 10.5036 12.6115 10.0942C12.1476 9.6848 11.5501 9.45899 10.9314 9.45923H9.06695C8.44851 9.4594 7.85142 9.6854 7.38786 10.0948C6.92429 10.5041 6.62616 11.0687 6.54947 11.6823L6.00724 16.0168C5.97748 16.255 5.99872 16.4967 6.06956 16.726C6.1404 16.9553 6.25921 17.1669 6.41811 17.3468C6.577 17.5266 6.77234 17.6706 6.99116 17.7692C7.20997 17.8678 7.44725 17.9186 7.68724 17.9185H12.3128C12.5527 17.9185 12.7899 17.8676 13.0086 17.7689C13.2273 17.6703 13.4225 17.5263 13.5813 17.3465C13.7401 17.1666 13.8589 16.9551 13.9297 16.7258C14.0004 16.4966 14.0217 16.2549 13.9919 16.0168V16.0168Z" stroke="#333333" stroke-width="2" stroke-linecap="round" stroke-linejoin="round"/>
<path d="M9.99992 6.07555C11.4015 6.07555 12.5377 4.93935 12.5377 3.53777C12.5377 2.1362 11.4015 1 9.99992 1C8.59835 1 7.46215 2.1362 7.46215 3.53777C7.46215 4.93935 8.59835 6.07555 9.99992 6.07555Z" stroke="#333333" stroke-width="2"/>
<path d="M3.23253 8.61331C4.16691 8.61331 4.92438 7.85585 4.92438 6.92146C4.92438 5.98708 4.16691 5.22961 3.23253 5.22961C2.29815 5.22961 1.54068 5.98708 1.54068 6.92146C1.54068 7.85585 2.29815 8.61331 3.23253 8.61331Z" stroke="#333333" stroke-width="2"/>
<path d="M16.7673 8.61331C17.7017 8.61331 18.4592 7.85585 18.4592 6.92146C18.4592 5.98708 17.7017 5.22961 16.7673 5.22961C15.8329 5.22961 15.0755 5.98708 15.0755 6.92146C15.0755 7.85585 15.8329 8.61331 16.7673 8.61331Z" stroke="#333333" stroke-width="2"/>
<path d="M3.2326 11.1511H2.97375C2.57326 11.1511 2.18573 11.2931 1.88012 11.5519C1.57451 11.8108 1.37062 12.1696 1.30474 12.5647L1.02305 14.2565C0.982623 14.4989 0.995489 14.7472 1.06075 14.9841C1.12601 15.221 1.2421 15.4409 1.40095 15.6284C1.55979 15.8159 1.75758 15.9666 1.98054 16.0699C2.20351 16.1732 2.44631 16.2267 2.69206 16.2267H5.77038M16.7674 11.1511H17.0262C17.4267 11.1511 17.8143 11.2931 18.1199 11.5519C18.4255 11.8108 18.6294 12.1696 18.6953 12.5647L18.977 14.2565C19.0174 14.4989 19.0045 14.7472 18.9392 14.9841C18.874 15.221 18.7579 15.4409 18.5991 15.6284C18.4402 15.8159 18.2424 15.9666 18.0195 16.0699C17.7965 16.1732 17.5537 16.2267 17.3079 16.2267H14.2296" stroke="#333333" stroke-width="2" stroke-linecap="round" stroke-linejoin="round"/>
</svg>
