<svg width="1398" height="1117" viewBox="0 0 1398 1117" fill="none" xmlns="http://www.w3.org/2000/svg">
<g clip-path="url(#clip0_192_287)">
<g opacity="0.1">
<path d="M-253.055 300.543C-187.618 235.139 75.1051 190.723 86.8251 189.258L280.205 199.996L182.05 194.627L280.693 199.996C277.763 200.485 -43.0716 257.103 100.987 357.65C170.818 406.459 261.16 456.245 356.385 508.471C572.717 627.565 802.722 671.982 891.598 848.183C899.9 864.778 896.97 1016.09 895.994 1056.6C893.552 1186.92 811.023 1341.64 602.505 1532.49L-305.307 1240.12C306.087 935.063 159.587 768.624 -90.9283 530.435C-150.993 473.328 -207.152 419.638 -242.8 366.924C-249.637 357.162 -253.055 347.888 -253.543 338.615C-255.008 325.924 -254.52 302.008 -253.055 300.543Z" fill="url(#paint0_linear_192_287)"/>
<path d="M-241.823 281.996C-184.2 222.937 75.105 190.723 86.825 189.258L280.205 198.044L182.05 193.651L280.693 198.044C277.763 198.532 -43.0716 244.413 100.987 326.412C170.818 366.436 261.16 406.948 356.385 449.412C749.982 626.101 1209.02 832.076 602.505 1285.03L-305.307 1047.32C306.087 798.398 159.587 662.708 -90.9283 467.959C-150.993 421.102 -207.152 377.662 -242.8 334.222C-259.403 314.21 -256.473 297.127 -241.823 281.996Z" fill="url(#paint1_linear_192_287)"/>
<path d="M10.6451 282.484C16.5051 255.639 66.8034 235.627 113.195 222.449C178.143 203.901 255.3 193.651 255.788 193.651L262.137 194.139C259.207 194.627 -86.5333 242.46 56.5484 330.805C123.938 372.293 211.35 414.269 304.622 458.685C686.498 641.72 1043.47 812.064 501.908 1159.1L469.678 1151.29C1013.68 811.088 665.012 641.72 290.46 459.661C198.165 414.757 111.73 372.781 45.3167 331.293C16.9934 312.258 7.71505 296.151 10.6451 282.484Z" fill="url(#paint2_linear_192_287)"/>
<path d="M-200.315 282.484C-177.852 255.639 -114.368 235.627 -59.675 222.449C16.9934 203.901 100.498 193.651 101.475 193.651L107.823 194.139C104.405 194.627 -271.612 242.46 -184.2 330.805C-143.18 372.293 -82.1383 414.269 -17.19 458.685C248.952 641.232 497.513 811.576 -263.798 1158.61L-291.145 1150.8C468.702 810.6 227.465 641.232 -31.84 459.173C-95.8116 414.269 -155.388 372.293 -195.432 330.805C-213.012 312.258 -212.035 296.151 -200.315 282.484Z" fill="url(#paint3_linear_192_287)"/>
<path d="M163.005 195.604C172.772 194.139 178.632 193.163 178.632 193.163L184.98 193.651C184.98 193.651 179.12 194.627 169.353 195.604H163.005Z" fill="url(#paint4_linear_192_287)"/>
<path d="M-95.3233 281.996H-85.0683C-86.5333 284.924 -87.51 288.341 -87.9983 291.758H-98.2533C-97.765 288.829 -96.7883 285.413 -95.3233 281.996ZM-88.4866 273.21C-85.5566 270.282 -82.6266 267.353 -78.72 264.425H-69.4416C-73.3483 267.353 -76.2783 270.282 -78.72 273.21H-88.4866ZM-97.2766 302.008H-86.5333C-85.5566 305.424 -83.6033 309.329 -81.1616 312.746H-92.3933C-94.835 309.329 -96.3 305.424 -97.2766 302.008ZM-66.5116 256.127C-62.1166 253.687 -56.745 250.758 -51.3733 248.318H-42.5833C-47.955 250.758 -52.8383 253.198 -57.2333 256.127H-66.5116ZM-82.1383 324.46H-70.9066C-68.465 326.412 -66.5116 328.365 -63.5816 330.317C-61.14 332.269 -58.21 334.222 -55.7683 336.174L-67.4883 336.662C-69.9299 334.71 -72.86 332.757 -75.3016 330.805C-77.7433 328.365 -80.1849 326.412 -82.1383 324.46ZM-34.2816 241.484C-28.4216 239.044 -21.585 236.603 -15.2366 234.651H-6.93494C-13.7716 237.091 -20.1199 239.044 -25.9799 241.484H-34.2816ZM-49.9083 349.353L-38.1883 348.865C-31.84 353.257 -25.0033 358.138 -18.1666 362.531L-30.375 363.019C-36.7233 358.138 -43.56 353.745 -49.9083 349.353ZM6.25005 227.818C13.575 225.865 20.9 223.425 28.7134 221.472H36.5267C28.7134 223.425 21.3884 225.377 14.0634 227.818H6.25005ZM-7.91163 377.662L4.78503 377.174C13.0867 382.543 21.3884 387.424 30.1784 392.793L16.9934 393.281C8.6917 387.912 0.390038 382.543 -7.91163 377.662ZM53.13 215.615C61.4317 213.663 69.7334 211.711 78.5234 210.246H85.8484C77.0584 212.199 68.7567 213.663 60.455 215.615H53.13ZM44.8284 409.876L58.5017 409.388C68.7567 415.245 79.0117 421.59 89.755 427.447L75.5934 427.936C65.3384 422.078 55.0834 415.733 44.8284 409.876ZM109.288 447.459L123.938 446.971L161.54 467.959L146.402 468.447L109.288 447.459ZM105.382 204.877C114.66 202.925 123.938 201.461 133.705 199.996L140.542 200.484C131.263 201.949 121.985 203.901 112.707 205.365L105.382 204.877ZM186.445 491.876L202.072 491.387C216.722 499.685 231.372 507.983 245.533 516.768L228.93 517.256C214.768 508.471 200.607 500.173 186.445 491.876ZM317.807 1013.16C355.897 985.337 387.15 958.492 411.078 933.111L439.89 936.528C415.962 962.396 385.197 989.73 347.107 1018.04L317.807 1013.16ZM273.857 544.59L291.437 543.613C308.528 554.351 324.155 564.601 338.805 574.363L320.248 574.851C306.087 565.577 290.46 555.328 273.857 544.59ZM463.818 861.361C475.05 839.885 480.91 818.409 482.375 797.421L508.257 798.397C507.768 819.385 501.908 840.861 491.653 863.314L463.818 861.361ZM366.64 609.994L386.173 609.506C402.777 622.684 417.915 635.375 431.1 648.065L410.102 648.553C397.405 635.863 382.755 622.684 366.64 609.994ZM448.192 691.993L470.655 691.505C482.863 708.1 492.142 724.696 498.49 741.291H474.562C468.213 724.696 459.423 708.1 448.192 691.993Z" fill="url(#paint5_linear_192_287)"/>
<path d="M89.2667 1150.8C121.008 1134.2 150.308 1118.1 177.167 1102.97L207.443 1109.8C180.585 1125.42 151.285 1142.01 119.543 1158.61L89.2667 1150.8Z" fill="url(#paint6_linear_192_287)"/>
</g>
</g>
<defs>
<linearGradient id="paint0_linear_192_287" x1="295.934" y1="540.469" x2="295.934" y2="221.057" gradientUnits="userSpaceOnUse">
<stop stop-color="#808080"/>
<stop offset="0.2074" stop-color="#838484"/>
<stop offset="0.4033" stop-color="#8C8F8F"/>
<stop offset="0.5945" stop-color="#9BA2A2"/>
<stop offset="0.7829" stop-color="#AFBCBD"/>
<stop offset="0.9675" stop-color="#CADDDF"/>
<stop offset="1" stop-color="#CFE4E6"/>
</linearGradient>
<linearGradient id="paint1_linear_192_287" x1="295.389" y1="475.916" x2="295.389" y2="215.188" gradientUnits="userSpaceOnUse">
<stop stop-color="#262626"/>
<stop offset="0.1535" stop-color="#292A2A"/>
<stop offset="0.2985" stop-color="#333535"/>
<stop offset="0.4401" stop-color="#444848"/>
<stop offset="0.5797" stop-color="#5C6263"/>
<stop offset="0.7177" stop-color="#7A8586"/>
<stop offset="0.8546" stop-color="#A0AFB0"/>
<stop offset="0.9882" stop-color="#CBDFE1"/>
<stop offset="1" stop-color="#CFE4E6"/>
</linearGradient>
<linearGradient id="paint2_linear_192_287" x1="394.486" y1="511.324" x2="394.486" y2="179.429" gradientUnits="userSpaceOnUse">
<stop stop-color="white"/>
<stop offset="0.297" stop-color="#FBFDFD"/>
<stop offset="0.5773" stop-color="#F0F6F7"/>
<stop offset="0.85" stop-color="#DDECED"/>
<stop offset="1" stop-color="#CFE4E6"/>
</linearGradient>
<linearGradient id="paint3_linear_192_287" x1="-23.2844" y1="511.324" x2="-23.2844" y2="179.429" gradientUnits="userSpaceOnUse">
<stop stop-color="white"/>
<stop offset="0.297" stop-color="#FBFDFD"/>
<stop offset="0.5773" stop-color="#F0F6F7"/>
<stop offset="0.85" stop-color="#DDECED"/>
<stop offset="1" stop-color="#CFE4E6"/>
</linearGradient>
<linearGradient id="paint4_linear_192_287" x1="174.043" y1="511.326" x2="174.043" y2="179.429" gradientUnits="userSpaceOnUse">
<stop stop-color="white"/>
<stop offset="0.297" stop-color="#FBFDFD"/>
<stop offset="0.5773" stop-color="#F0F6F7"/>
<stop offset="0.85" stop-color="#DDECED"/>
<stop offset="1" stop-color="#CFE4E6"/>
</linearGradient>
<linearGradient id="paint5_linear_192_287" x1="204.949" y1="511.324" x2="204.949" y2="179.429" gradientUnits="userSpaceOnUse">
<stop stop-color="white"/>
<stop offset="0.297" stop-color="#FBFDFD"/>
<stop offset="0.5773" stop-color="#F0F6F7"/>
<stop offset="0.85" stop-color="#DDECED"/>
<stop offset="1" stop-color="#CFE4E6"/>
</linearGradient>
<linearGradient id="paint6_linear_192_287" x1="148.234" y1="511.327" x2="148.234" y2="179.434" gradientUnits="userSpaceOnUse">
<stop stop-color="white"/>
<stop offset="0.297" stop-color="#FBFDFD"/>
<stop offset="0.5773" stop-color="#F0F6F7"/>
<stop offset="0.85" stop-color="#DDECED"/>
<stop offset="1" stop-color="#CFE4E6"/>
</linearGradient>
<clipPath id="clip0_192_287">
<rect width="1758" height="1906" fill="white" transform="translate(-360 -374)"/>
</clipPath>
</defs>
</svg>
